<svg width="467" height="387" viewBox="0 0 467 387" fill="none" xmlns="http://www.w3.org/2000/svg">
<g clip-path="url(#clip0_1_291)">
<path d="M227.745 0.680915C227.516 0.690219 227.29 0.744666 227.081 0.841193C226.873 0.93772 226.685 1.07443 226.529 1.24348C226.374 1.41252 226.253 1.61061 226.173 1.82642C226.094 2.04223 226.058 2.27153 226.068 2.50123L227.068 27.2727C227.077 27.5024 227.131 27.728 227.228 27.9367C227.324 28.1453 227.461 28.3329 227.63 28.4887C227.799 28.6445 227.997 28.7655 228.213 28.8447C228.429 28.924 228.658 28.9599 228.888 28.9504C229.118 28.9411 229.343 28.8867 229.552 28.7902C229.761 28.6936 229.948 28.5569 230.104 28.3879C230.26 28.2188 230.381 28.0207 230.46 27.8049C230.539 27.5891 230.575 27.3598 230.566 27.1301L229.566 2.35865C229.556 2.12894 229.502 1.9033 229.405 1.69465C229.309 1.486 229.172 1.29845 229.003 1.14265C228.834 0.986841 228.636 0.865853 228.42 0.786628C228.204 0.707402 227.975 0.671491 227.745 0.680915Z" fill="black"/>
<path d="M208.271 23.6047C208.064 23.7052 207.879 23.8454 207.726 24.0174C207.574 24.1894 207.457 24.3898 207.382 24.6071C207.307 24.8244 207.275 25.0544 207.289 25.2839C207.303 25.5133 207.362 25.7378 207.462 25.9446L211.663 34.5852C211.866 35.0023 212.227 35.3218 212.665 35.4734C213.103 35.625 213.584 35.5964 214.001 35.3938C214.208 35.2933 214.393 35.153 214.546 34.981C214.698 34.809 214.815 34.6087 214.89 34.3914C214.965 34.1741 214.997 33.9441 214.983 33.7146C214.969 33.4852 214.91 33.2607 214.81 33.0539L210.611 24.4133C210.51 24.2065 210.37 24.0216 210.198 23.8691C210.026 23.7165 209.825 23.5993 209.608 23.5242C209.391 23.4491 209.161 23.4176 208.932 23.4314C208.702 23.4452 208.477 23.5041 208.271 23.6047Z" fill="black"/>
<path d="M175.323 46.8137C174.944 46.547 174.474 46.4421 174.017 46.5219C173.559 46.6017 173.153 46.8599 172.886 47.2395C172.619 47.619 172.514 48.0889 172.593 48.5459C172.673 49.003 172.93 49.4099 173.31 49.677L197.331 66.5618C197.711 66.8284 198.181 66.9334 198.638 66.8536C199.095 66.7737 199.502 66.5156 199.769 66.136C199.901 65.9479 199.995 65.7356 200.045 65.5112C200.096 65.2867 200.101 65.0546 200.062 64.828C200.022 64.6014 199.938 64.3849 199.815 64.1908C199.692 63.9966 199.531 63.8287 199.343 63.6965L175.323 46.8137Z" fill="black"/>
<path d="M190.568 81.0559C190.338 81.0465 190.109 81.0824 189.893 81.1616C189.677 81.2409 189.479 81.3618 189.31 81.5176C189.141 81.6734 189.004 81.861 188.908 82.0697C188.811 82.2783 188.757 82.5039 188.747 82.7337C188.738 82.9634 188.774 83.1926 188.853 83.4085C188.932 83.6243 189.053 83.8224 189.209 83.9915C189.365 84.1605 189.552 84.2972 189.761 84.3937C189.97 84.4902 190.195 84.5447 190.425 84.554L194.306 84.7122C194.77 84.7312 195.222 84.5654 195.563 84.2512C195.904 83.9369 196.107 83.5 196.126 83.0364C196.136 82.8067 196.1 82.5774 196.021 82.3616C195.941 82.1458 195.82 81.9476 195.665 81.7786C195.509 81.6095 195.321 81.4729 195.112 81.3764C194.904 81.2798 194.678 81.2254 194.448 81.2161L190.568 81.0559Z" fill="black"/>
<path d="M193.515 108.234L186.226 112.355C186.026 112.468 185.85 112.619 185.708 112.8C185.567 112.981 185.462 113.189 185.401 113.41C185.339 113.631 185.322 113.863 185.35 114.091C185.378 114.319 185.451 114.539 185.564 114.739C185.677 114.94 185.828 115.115 186.009 115.257C186.19 115.398 186.398 115.503 186.619 115.564C186.841 115.626 187.072 115.643 187.3 115.615C187.528 115.587 187.748 115.515 187.949 115.402L195.238 111.281C195.438 111.167 195.614 111.016 195.755 110.835C195.897 110.654 196.001 110.447 196.063 110.225C196.124 110.004 196.141 109.772 196.113 109.544C196.085 109.316 196.013 109.096 195.9 108.896C195.787 108.696 195.635 108.52 195.454 108.378C195.273 108.237 195.066 108.132 194.844 108.071C194.623 108.009 194.392 107.992 194.164 108.02C193.935 108.048 193.715 108.121 193.515 108.234Z" fill="black"/>
<path d="M265.155 92.9211L261.864 93.884C261.644 93.9486 261.438 94.0561 261.259 94.2002C261.08 94.3443 260.931 94.5223 260.821 94.724C260.71 94.9257 260.641 95.1471 260.616 95.3756C260.592 95.6041 260.612 95.8353 260.677 96.0559C260.742 96.2765 260.849 96.4822 260.993 96.6613C261.137 96.8404 261.315 96.9893 261.517 97.0996C261.719 97.2099 261.94 97.2793 262.169 97.304C262.397 97.3287 262.628 97.3081 262.849 97.2434L266.138 96.2805C266.359 96.2159 266.564 96.1085 266.743 95.9643C266.922 95.8202 267.071 95.6422 267.182 95.4405C267.292 95.2389 267.361 95.0175 267.386 94.7889C267.411 94.5604 267.39 94.3292 267.325 94.1086C267.195 93.6636 266.893 93.2885 266.486 93.0658C266.079 92.8431 265.601 92.7911 265.155 92.9211Z" fill="black"/>
<path d="M265.683 110.165C265.245 110.013 264.764 110.04 264.346 110.242C263.928 110.444 263.607 110.803 263.454 111.241C263.302 111.68 263.329 112.161 263.531 112.579C263.733 112.997 264.092 113.317 264.531 113.47L267.972 114.667C268.41 114.819 268.89 114.792 269.308 114.59C269.725 114.388 270.046 114.029 270.198 113.591C270.351 113.153 270.324 112.672 270.122 112.254C269.92 111.836 269.561 111.515 269.122 111.363L265.683 110.165Z" fill="black"/>
<path d="M285.595 43.6829C285.234 43.3912 284.772 43.255 284.31 43.3041C283.849 43.3531 283.426 43.5835 283.134 43.9446L259.544 73.1789C259.4 73.3578 259.292 73.5634 259.227 73.7839C259.163 74.0044 259.142 74.2355 259.166 74.464C259.191 74.6926 259.26 74.914 259.37 75.1158C259.48 75.3175 259.629 75.4956 259.808 75.6399C259.987 75.7842 260.192 75.8918 260.413 75.9567C260.633 76.0215 260.864 76.0422 261.093 76.0178C261.321 75.9933 261.543 75.924 261.745 75.814C261.946 75.7039 262.124 75.5551 262.269 75.3762L285.859 46.1438C286.003 45.9649 286.111 45.7593 286.175 45.5388C286.24 45.3183 286.261 45.0872 286.237 44.8587C286.212 44.6302 286.143 44.4087 286.033 44.207C285.923 44.0052 285.774 43.8271 285.595 43.6829Z" fill="black"/>
<path d="M255.767 28.9954C255.55 29.07 255.349 29.1867 255.177 29.3389C255.005 29.491 254.864 29.6756 254.763 29.8821L249.695 40.2825C249.491 40.6995 249.462 41.1803 249.612 41.619C249.763 42.0578 250.082 42.4187 250.499 42.6223C250.706 42.723 250.93 42.782 251.16 42.796C251.389 42.8099 251.619 42.7785 251.836 42.7036C252.053 42.6287 252.254 42.5117 252.426 42.3594C252.598 42.207 252.738 42.0223 252.839 41.8157L257.909 31.4153C258.01 31.2087 258.069 30.9843 258.083 30.7549C258.097 30.5255 258.066 30.2955 257.991 30.0783C257.916 29.861 257.799 29.6606 257.647 29.4885C257.494 29.3165 257.309 29.1761 257.103 29.0755C256.686 28.8728 256.205 28.844 255.767 28.9954Z" fill="black"/>
<path d="M104.386 118.741C103.923 118.774 103.492 118.988 103.187 119.338C102.883 119.687 102.729 120.144 102.761 120.607C103.706 134.344 110.54 142.681 120.867 146.527C121.301 146.688 121.783 146.671 122.205 146.478C122.627 146.285 122.955 145.932 123.117 145.497C123.197 145.282 123.234 145.053 123.226 144.823C123.218 144.593 123.164 144.367 123.069 144.158C122.973 143.949 122.837 143.761 122.669 143.604C122.5 143.447 122.303 143.326 122.087 143.245C112.774 139.777 107.129 133.101 106.253 120.366C106.237 120.137 106.176 119.913 106.074 119.707C105.972 119.502 105.83 119.318 105.656 119.167C105.483 119.016 105.281 118.901 105.064 118.828C104.846 118.755 104.615 118.726 104.386 118.741Z" fill="black"/>
<path d="M96.5402 125.749C96.3227 125.824 96.1219 125.94 95.9494 126.092C95.7769 126.244 95.6361 126.428 95.5349 126.635C95.4337 126.841 95.3741 127.066 95.3596 127.295C95.3451 127.524 95.3759 127.754 95.4504 127.972C96.0518 129.732 96.1644 131.265 95.9934 132.318C95.8225 133.371 95.4158 133.833 95.1496 133.972C94.8834 134.111 94.4619 134.207 93.4602 133.579C92.4586 132.952 91.0782 131.561 89.6184 129.181C89.3759 128.785 88.9862 128.502 88.535 128.394C88.0837 128.285 87.6079 128.36 87.2121 128.603C87.0159 128.723 86.8453 128.88 86.71 129.066C86.5748 129.253 86.4775 129.463 86.4238 129.687C86.3701 129.911 86.3611 130.143 86.3972 130.37C86.4332 130.597 86.5137 130.815 86.634 131.011C88.2792 133.694 89.915 135.489 91.6027 136.546C93.2904 137.603 95.2314 137.88 96.7727 137.073C98.314 136.266 99.16 134.655 99.4484 132.878C99.7369 131.101 99.5164 129.047 98.7629 126.841C98.6888 126.623 98.5725 126.422 98.4206 126.25C98.2687 126.077 98.0843 125.936 97.8779 125.834C97.6714 125.733 97.447 125.673 97.2175 125.659C96.988 125.644 96.7579 125.675 96.5402 125.749Z" fill="black"/>
<path d="M91.845 112.173C88.0064 113.055 85.0105 115.141 82.8314 117.966C82.6909 118.148 82.5876 118.356 82.5275 118.578C82.4674 118.8 82.4515 119.031 82.4809 119.259C82.5103 119.487 82.5843 119.707 82.6987 119.906C82.8131 120.106 82.9657 120.281 83.1478 120.421C83.3297 120.562 83.5376 120.665 83.7595 120.725C83.9813 120.785 84.2129 120.801 84.4409 120.772C84.6688 120.742 84.8888 120.668 85.0882 120.554C85.2876 120.439 85.4624 120.287 85.6028 120.105C87.3637 117.822 89.5468 116.291 92.6282 115.583C92.8523 115.532 93.0641 115.437 93.2514 115.304C93.4387 115.17 93.598 115.002 93.72 114.807C93.8421 114.612 93.9246 114.395 93.9628 114.168C94.001 113.942 93.9942 113.71 93.9427 113.486C93.8385 113.033 93.559 112.641 93.1656 112.395C92.7722 112.149 92.2972 112.069 91.845 112.173Z" fill="black"/>
<path d="M92.4251 158.368C91.9636 158.319 91.5014 158.454 91.1399 158.745C90.7786 159.036 90.5474 159.458 90.4972 159.92C90.447 160.381 90.582 160.843 90.8723 161.204C92.7104 163.49 94.8708 165.253 97.4309 166.148C99.9911 167.043 102.892 167.013 105.966 165.978C106.406 165.83 106.769 165.513 106.975 165.097C107.181 164.681 107.214 164.201 107.066 163.761C106.917 163.321 106.601 162.958 106.185 162.752C105.769 162.546 105.289 162.513 104.849 162.661C102.363 163.499 100.373 163.47 98.5852 162.845C96.7979 162.22 95.1528 160.941 93.6009 159.011C93.4567 158.832 93.2787 158.683 93.0769 158.573C92.8752 158.462 92.6537 158.393 92.4251 158.368Z" fill="black"/>
<path d="M112.857 147.425C112.394 147.462 111.965 147.682 111.665 148.035C111.364 148.389 111.216 148.847 111.253 149.31C112.38 163.365 109.528 173.084 104.197 178.019C98.8648 182.953 90.7622 183.702 79.8958 178.974C79.4702 178.789 78.9886 178.78 78.5568 178.95C78.1249 179.12 77.7782 179.455 77.593 179.88C77.4079 180.306 77.3994 180.787 77.5693 181.219C77.7393 181.651 78.0738 181.998 78.4993 182.183C90.1029 187.232 100.048 186.627 106.573 180.587C113.099 174.548 115.915 163.673 114.741 149.029C114.704 148.566 114.485 148.137 114.131 147.836C113.778 147.536 113.319 147.388 112.857 147.425Z" fill="black"/>
<path d="M100.796 56.0793C89.6079 55.9011 77.9018 61.1929 66.7122 76.8079C56.6865 72.9908 44.7844 73.0747 35.1927 78.0149C25.6083 82.9514 18.6199 92.893 18.7239 107.661C16.96 107.567 14.3532 107.6 11.0755 108.792C6.14429 110.586 0.964981 115.322 0.509081 125.04C-0.392319 144.03 9.70927 159.095 22.6888 167.962C36.7334 177.554 58.3129 177.942 74.8255 161.343C75.7258 160.439 76.3404 159.59 76.5462 158.527C76.752 157.463 76.2332 156.247 75.5091 155.65C74.061 154.455 72.4259 154.486 70.9329 154.634C66.1458 155.11 62.1663 154.186 59.5716 151.843C56.9768 149.5 55.4645 145.585 56.1087 139.177C56.5384 134.904 58.3105 133.046 59.9036 132.493C61.4967 131.94 63.2119 132.502 64.347 134.341V134.343C65.4438 136.114 67.6646 139.598 70.2533 142.743C71.5476 144.316 72.93 145.807 74.3724 146.978C75.8148 148.149 77.3194 149.076 79.0892 149.183C82.3393 149.38 84.9415 147.405 85.9681 144.72C86.9946 142.035 86.8677 138.736 85.8981 135.331V135.329C84.8015 131.464 82.712 126.547 81.5505 121.72C80.3889 116.892 80.2283 112.387 82.3805 109.234V109.232C83.8338 107.097 86.0014 106.398 89.232 106.236C92.4626 106.073 96.5095 106.598 100.777 106.761C106.094 106.965 111.879 105.635 116.578 102.111C121.277 98.5856 124.777 92.8244 125.447 84.6848C126.674 69.6951 118.223 58.3632 105.662 56.4875C104.052 56.2472 102.428 56.1053 100.793 56.0793L100.796 56.0793ZM100.714 59.554C102.196 59.5911 103.673 59.7283 105.148 59.9485C115.946 61.5608 123.075 70.8053 121.962 84.3997C121.362 91.702 118.408 96.3669 114.482 99.3118C110.556 102.257 105.546 103.44 100.913 103.263C96.8609 103.108 92.7868 102.555 89.0599 102.741C85.3331 102.928 81.7064 104.005 79.4897 107.261C76.4537 111.711 76.8942 117.32 78.1498 122.538C79.4056 127.757 81.549 132.819 82.5326 136.286V136.288C83.3521 139.164 83.3245 141.835 82.6987 143.472C82.0728 145.109 81.27 145.808 79.3001 145.689C78.775 145.657 77.733 145.199 76.5776 144.261C75.4221 143.323 74.1564 141.981 72.9544 140.521C70.551 137.601 68.3871 134.218 67.3237 132.501V132.499C65.4485 129.462 61.9047 128.093 58.7533 129.187C55.6013 130.281 53.1447 133.651 52.6244 138.825C51.9086 145.945 53.6612 151.224 57.224 154.441C60.7863 157.657 65.8545 158.657 71.2767 158.118C71.966 158.05 72.4434 158.211 72.7845 158.292C72.6806 158.468 72.7075 158.51 72.3451 158.874C56.9177 174.383 37.3769 173.756 24.6615 165.072C12.501 156.764 3.16464 142.876 4.00334 125.206V125.204C4.40734 116.593 8.322 113.518 12.2708 112.081C16.2197 110.645 20.1751 111.228 20.1751 111.228C20.4318 111.268 20.6942 111.25 20.9433 111.176C21.1923 111.102 21.4217 110.974 21.6149 110.8C21.8081 110.626 21.9602 110.412 22.0601 110.172C22.16 109.932 22.2053 109.673 22.1927 109.413C21.4699 94.656 27.8656 85.725 36.7944 81.1262C45.7232 76.5274 57.3601 76.4954 66.6829 80.4348C67.0531 80.5911 67.4658 80.6153 67.8517 80.5032C68.2376 80.3912 68.5732 80.1498 68.8022 79.8195C79.7954 63.9656 90.3421 59.294 100.712 59.5539L100.714 59.554Z" fill="black"/>
<path fill-rule="evenodd" clip-rule="evenodd" d="M67.3668 78.8222C47.7668 70.5402 18.9467 78.8742 20.4467 109.498C20.4467 109.498 3.11667 106.793 2.25667 125.123C1.38667 143.453 11.1067 157.93 23.6767 166.517C37.0567 175.655 57.6167 176.162 73.5867 160.108C76.6467 157.034 73.5168 156.137 71.1068 156.376C60.8968 157.391 53.0068 152.528 54.3668 139.001C55.3168 129.553 62.8267 128.544 65.8367 133.421C67.9967 136.909 74.6067 147.157 79.1967 147.435C84.4167 147.752 86.0068 142.089 84.2168 135.808C82.1367 128.475 75.7467 115.85 80.9367 108.246C84.6067 102.856 92.5268 104.694 100.847 105.012C110.797 105.393 122.437 99.9842 123.707 84.5422C124.877 70.2502 117.087 59.9622 105.407 58.2182C93.0667 56.3762 80.1768 60.3482 67.3668 78.8222Z" fill="black"/>
<path d="M61.4621 209.271C55.0589 208.662 50.0164 211.052 46.5715 213.997C41.9783 217.924 39.8996 222.802 39.8996 222.802C39.8085 223.013 39.7598 223.24 39.7564 223.47C39.753 223.7 39.7951 223.928 39.8799 224.142C39.9648 224.355 40.0909 224.55 40.2512 224.715C40.4114 224.88 40.6025 225.012 40.8137 225.103C41.0249 225.194 41.252 225.242 41.482 225.246C41.712 225.249 41.9403 225.207 42.154 225.122C42.3677 225.037 42.5624 224.91 42.7272 224.75C42.892 224.589 43.0236 224.398 43.1144 224.187C43.1144 224.187 44.9451 219.993 48.8469 216.657C52.7486 213.322 58.396 210.814 67.0226 214.224C86.0317 221.738 96.9858 227.899 102.152 230.45C104.392 231.556 107.038 232.393 109.571 231.47C110.838 231.008 111.983 230.008 112.663 228.62C113.343 227.233 113.624 225.512 113.556 223.372C113.541 222.908 113.343 222.469 113.004 222.152C112.666 221.834 112.215 221.664 111.751 221.679C111.287 221.694 110.848 221.892 110.531 222.231C110.213 222.569 110.043 223.02 110.058 223.484C110.114 225.244 109.853 226.404 109.521 227.081C109.189 227.758 108.853 228.006 108.372 228.181C107.411 228.531 105.492 228.194 103.702 227.312C98.7877 224.885 87.5013 218.553 68.3116 210.968C65.8833 210.008 63.5985 209.474 61.4641 209.271H61.4621Z" fill="black"/>
<path d="M125.382 353.628C124.182 353.436 123.224 354.141 122.64 354.825C122.056 355.509 121.62 356.337 121.2 357.351C121.2 357.351 121.2 357.352 121.2 357.353C119.146 362.33 113.924 368.709 108.779 369.699C106.145 370.205 102.465 369.738 99.5266 369.075C96.5886 368.413 94.4115 367.613 94.4115 367.613C94.1957 367.533 93.9663 367.497 93.7366 367.507C93.5069 367.516 93.2814 367.571 93.0728 367.668C92.8642 367.764 92.6767 367.901 92.521 368.07C92.3653 368.24 92.2445 368.438 92.1654 368.654C92.0862 368.869 92.0502 369.099 92.0597 369.328C92.0692 369.558 92.1238 369.784 92.2205 369.992C92.3171 370.201 92.454 370.388 92.6232 370.544C92.7923 370.7 92.9906 370.821 93.2064 370.9C93.2064 370.9 95.5901 371.775 98.7572 372.49C101.924 373.204 105.893 373.816 109.439 373.134C116.652 371.746 122.029 364.517 124.435 358.691V358.689C124.582 358.333 124.679 358.239 124.816 357.988C124.963 358.415 125.109 358.736 125.247 359.466C125.645 361.586 125.469 364.967 126.132 367.843C126.464 369.281 127.052 370.76 128.427 371.695C129.803 372.629 131.666 372.667 133.654 372.001C140.587 369.673 144.949 367.052 144.949 367.052C145.346 366.813 145.632 366.426 145.744 365.976C145.856 365.525 145.785 365.049 145.546 364.652C145.428 364.455 145.272 364.283 145.087 364.146C144.902 364.009 144.692 363.91 144.469 363.855C144.246 363.799 144.014 363.788 143.787 363.823C143.559 363.857 143.341 363.935 143.144 364.054C143.144 364.054 139.147 366.465 132.54 368.683C131.139 369.153 130.656 368.979 130.392 368.8C130.128 368.621 129.781 368.083 129.544 367.056C129.071 365.002 129.219 361.649 128.687 358.818C128.687 358.816 128.687 358.815 128.687 358.814C128.434 357.479 128.133 356.438 127.695 355.573C127.257 354.709 126.582 353.82 125.382 353.628Z" fill="black"/>
<path fill-rule="evenodd" clip-rule="evenodd" d="M118.413 243.27C118.413 243.551 118.357 243.829 118.25 244.089C118.142 244.349 117.984 244.585 117.786 244.784C117.587 244.983 117.351 245.141 117.091 245.248C116.831 245.356 116.553 245.411 116.271 245.411C115.99 245.411 115.712 245.356 115.452 245.248C115.192 245.141 114.956 244.983 114.757 244.784C114.558 244.585 114.401 244.349 114.293 244.089C114.185 243.829 114.13 243.551 114.13 243.27C114.13 242.989 114.185 242.71 114.293 242.45C114.401 242.191 114.558 241.954 114.757 241.756C114.956 241.557 115.192 241.399 115.452 241.291C115.712 241.184 115.99 241.128 116.271 241.128C116.553 241.128 116.831 241.184 117.091 241.291C117.351 241.399 117.587 241.557 117.786 241.756C117.984 241.954 118.142 242.191 118.25 242.45C118.357 242.71 118.413 242.989 118.413 243.27Z" fill="black"/>
<path fill-rule="evenodd" clip-rule="evenodd" d="M122.697 260.114C122.697 260.682 122.471 261.226 122.07 261.628C121.668 262.03 121.123 262.255 120.555 262.255C120.274 262.255 119.996 262.2 119.736 262.092C119.476 261.985 119.24 261.827 119.041 261.628C118.842 261.429 118.685 261.193 118.577 260.933C118.469 260.673 118.414 260.395 118.414 260.114C118.414 259.833 118.469 259.554 118.577 259.294C118.685 259.035 118.842 258.798 119.041 258.6C119.24 258.401 119.476 258.243 119.736 258.135C119.996 258.028 120.274 257.972 120.555 257.972C121.123 257.972 121.668 258.198 122.07 258.6C122.471 259.001 122.697 259.546 122.697 260.114Z" fill="black"/>
<path fill-rule="evenodd" clip-rule="evenodd" d="M125.075 277.948C125.075 278.229 125.019 278.507 124.912 278.767C124.804 279.027 124.646 279.263 124.448 279.462C124.249 279.661 124.013 279.819 123.753 279.926C123.493 280.034 123.215 280.089 122.933 280.089C122.652 280.089 122.374 280.034 122.114 279.926C121.854 279.819 121.618 279.661 121.419 279.462C121.22 279.263 121.063 279.027 120.955 278.767C120.847 278.507 120.792 278.229 120.792 277.948C120.792 277.667 120.847 277.388 120.955 277.128C121.063 276.869 121.22 276.632 121.419 276.434C121.618 276.235 121.854 276.077 122.114 275.969C122.374 275.862 122.652 275.806 122.933 275.806C123.215 275.806 123.493 275.862 123.753 275.969C124.013 276.077 124.249 276.235 124.448 276.434C124.646 276.632 124.804 276.869 124.912 277.128C125.019 277.388 125.075 277.667 125.075 277.948Z" fill="black"/>
<path fill-rule="evenodd" clip-rule="evenodd" d="M126.561 294.891C126.561 295.172 126.505 295.45 126.398 295.71C126.29 295.97 126.133 296.206 125.934 296.405C125.735 296.604 125.499 296.762 125.239 296.869C124.979 296.977 124.701 297.032 124.419 297.032C124.138 297.032 123.86 296.977 123.6 296.869C123.34 296.762 123.104 296.604 122.905 296.405C122.706 296.206 122.549 295.97 122.441 295.71C122.333 295.45 122.278 295.172 122.278 294.891C122.278 294.61 122.333 294.331 122.441 294.071C122.549 293.812 122.706 293.575 122.905 293.377C123.104 293.178 123.34 293.02 123.6 292.912C123.86 292.805 124.138 292.749 124.419 292.749C124.701 292.749 124.979 292.805 125.239 292.912C125.499 293.02 125.735 293.178 125.934 293.377C126.133 293.575 126.29 293.812 126.398 294.071C126.505 294.331 126.561 294.61 126.561 294.891Z" fill="black"/>
<path fill-rule="evenodd" clip-rule="evenodd" d="M126.858 310.645C126.858 310.926 126.802 311.204 126.695 311.464C126.587 311.724 126.43 311.96 126.231 312.159C126.032 312.358 125.796 312.516 125.536 312.623C125.276 312.731 124.998 312.786 124.716 312.786C124.435 312.786 124.157 312.731 123.897 312.623C123.637 312.516 123.401 312.358 123.202 312.159C123.003 311.96 122.846 311.724 122.738 311.464C122.63 311.204 122.575 310.926 122.575 310.645C122.575 310.364 122.63 310.085 122.738 309.825C122.846 309.566 123.003 309.329 123.202 309.131C123.401 308.932 123.637 308.774 123.897 308.666C124.157 308.559 124.435 308.503 124.716 308.503C124.998 308.503 125.276 308.559 125.536 308.666C125.796 308.774 126.032 308.932 126.231 309.131C126.43 309.329 126.587 309.566 126.695 309.825C126.802 310.085 126.858 310.364 126.858 310.645Z" fill="black"/>
<path fill-rule="evenodd" clip-rule="evenodd" d="M128.047 327.885C128.047 328.167 127.991 328.445 127.884 328.705C127.776 328.965 127.618 329.201 127.42 329.4C127.221 329.599 126.985 329.756 126.725 329.864C126.465 329.971 126.187 330.027 125.905 330.027C125.624 330.027 125.346 329.971 125.086 329.864C124.826 329.756 124.59 329.599 124.391 329.4C124.192 329.201 124.035 328.965 123.927 328.705C123.819 328.445 123.764 328.167 123.764 327.885C123.764 327.604 123.819 327.326 123.927 327.066C124.035 326.806 124.192 326.57 124.391 326.371C124.59 326.172 124.826 326.015 125.086 325.907C125.346 325.799 125.624 325.744 125.905 325.744C126.187 325.744 126.465 325.799 126.725 325.907C126.985 326.015 127.221 326.172 127.42 326.371C127.618 326.57 127.776 326.806 127.884 327.066C127.991 327.326 128.047 327.604 128.047 327.885Z" fill="black"/>
<path fill-rule="evenodd" clip-rule="evenodd" d="M127.651 344.531C127.651 344.812 127.595 345.091 127.488 345.351C127.38 345.61 127.222 345.847 127.024 346.045C126.825 346.244 126.589 346.402 126.329 346.51C126.069 346.617 125.791 346.673 125.509 346.673C125.228 346.673 124.95 346.617 124.69 346.51C124.43 346.402 124.194 346.244 123.995 346.045C123.796 345.847 123.639 345.61 123.531 345.351C123.423 345.091 123.368 344.812 123.368 344.531C123.368 344.25 123.423 343.971 123.531 343.712C123.639 343.452 123.796 343.216 123.995 343.017C124.194 342.818 124.43 342.66 124.69 342.553C124.95 342.445 125.228 342.39 125.509 342.39C125.791 342.39 126.069 342.445 126.329 342.553C126.589 342.66 126.825 342.818 127.024 343.017C127.222 343.216 127.38 343.452 127.488 343.712C127.595 343.971 127.651 344.25 127.651 344.531Z" fill="black"/>
<path fill-rule="evenodd" clip-rule="evenodd" d="M87.7268 383.428C83.1468 383.193 43.7567 386.276 26.7867 364.107C9.81675 341.937 1.1168 316.731 17.2168 276.211C26.2868 253.378 38.5968 233.955 48.5568 221.159C52.4368 216.165 57.0068 216.373 66.9468 220.489C78.6568 225.333 102.037 236.905 111.817 265.442C116.967 280.465 119.287 309.279 110.707 342.392C106.377 359.119 98.4968 374.444 94.4268 380.857C93.2568 382.717 91.4768 383.621 87.7268 383.428ZM71.5668 265.999C78.6768 259.943 86.5268 255.983 95.5868 255.443C96.5468 255.386 97.2868 254.556 97.2268 253.592C97.1668 252.628 96.3367 251.892 95.3767 251.949C85.5467 252.535 77.0068 256.766 69.2968 263.334C68.5568 263.96 68.4768 265.066 69.0968 265.801C69.7268 266.537 70.8268 266.625 71.5668 265.999ZM57.6968 282.191C56.7568 277.932 48.2868 300.274 46.0668 307.376C43.8468 314.478 43.7268 321.39 47.4668 324.624C54.3068 330.534 63.7167 332.868 67.1267 333.314C69.9067 333.678 69.4768 331.163 67.9768 330.879C66.9368 330.682 63.4368 329.988 60.3568 328.989C57.1868 327.961 55.2168 326.643 55.9168 320.809C56.6768 314.493 57.6968 282.191 57.6968 282.191Z" fill="black"/>
<path d="M93.0579 182.122C92.5956 182.162 92.168 182.384 91.8692 182.739C91.5703 183.094 91.4246 183.553 91.4641 184.015C92.233 192.96 94.5006 199.663 98.2024 204.398C101.904 209.132 107.04 211.769 112.999 212.618C113.227 212.651 113.459 212.638 113.681 212.581C113.904 212.525 114.113 212.424 114.297 212.286C114.481 212.149 114.636 211.976 114.753 211.778C114.87 211.58 114.947 211.362 114.98 211.134C115.012 210.906 115 210.675 114.943 210.452C114.886 210.229 114.785 210.02 114.647 209.836C114.509 209.652 114.336 209.497 114.138 209.38C113.94 209.263 113.721 209.186 113.493 209.154C108.233 208.404 104.098 206.257 100.96 202.243C97.8221 198.23 95.6816 192.223 94.9505 183.716C94.9107 183.254 94.689 182.826 94.3341 182.527C93.9792 182.228 93.5202 182.083 93.0579 182.122Z" fill="black"/>
<path fill-rule="evenodd" clip-rule="evenodd" d="M99.7767 203.574C99.7767 203.574 124.087 206.726 141.687 195.889C156.817 186.566 189.147 173.447 204.497 129.525C206.897 122.684 210.147 124.928 214.287 126.916C217.577 128.5 235.847 138.422 238.837 140.721C241.307 142.623 240.867 145.851 239.797 149.169C238.717 152.487 233.217 175.471 209.797 207.402C195.947 226.29 177.317 239.95 155.117 249.462C152.997 250.372 151.597 249.44 150.517 247.265C147.627 241.438 137.477 224.388 131.897 218.4C130.887 217.313 128.367 218.312 129.937 220.519C134.157 226.417 172.877 270.873 183.977 375.378C184.607 381.326 181.287 383.22 175.517 384.171C169.747 385.123 150.157 385.693 146.727 384.425C143.307 383.157 141.717 379.986 141.597 374.406C141.467 368.826 135.597 304.453 131.917 277.748C128.247 251.042 128.557 231.309 104.717 207.94C102.877 206.808 101.227 205.362 99.7767 203.574Z" fill="black"/>
<path d="M228.093 92.9114C227.437 93.0515 226.802 93.357 226.286 93.7923C225.256 94.6628 224.466 95.9328 223.708 97.7063C220.649 104.832 220.136 114.2 220.136 118.179C220.136 118.643 220.32 119.088 220.649 119.416C220.977 119.745 221.422 119.929 221.886 119.929C222.35 119.929 222.795 119.745 223.123 119.416C223.452 119.088 223.636 118.643 223.636 118.179C223.636 114.549 224.265 105.276 226.925 99.0833V99.0813C227.557 97.6008 228.189 96.7662 228.544 96.466C228.9 96.1658 228.735 96.2811 228.775 96.2961C228.814 96.3111 229.177 96.5596 229.531 97.1867C229.884 97.8129 230.225 98.7463 230.45 99.8254C231.394 104.386 232.376 116.031 232.435 124.087V124.091C232.459 126.802 230.877 129.799 229.165 132.07C227.453 134.34 225.751 135.814 225.751 135.814C225.577 135.964 225.435 136.147 225.332 136.353C225.228 136.558 225.167 136.782 225.15 137.011C225.133 137.24 225.162 137.47 225.234 137.689C225.307 137.907 225.421 138.109 225.572 138.283C225.875 138.633 226.305 138.849 226.768 138.883C227.23 138.917 227.687 138.765 228.038 138.462C228.038 138.462 230.012 136.761 231.96 134.177C233.908 131.594 235.97 128.059 235.935 124.062V124.06C235.874 115.757 234.955 104.322 233.878 99.1165V99.1124C233.594 97.7527 233.171 96.5175 232.579 95.4679C231.987 94.4183 231.223 93.4843 230.025 93.0266C229.426 92.7977 228.747 92.7712 228.091 92.9113L228.093 92.9114Z" fill="black"/>
<path d="M224.909 49.011C223.524 48.7454 222.228 49.6356 221.534 50.6789C220.84 51.7223 220.418 53.0457 220.158 54.7161C220.158 54.7174 220.158 54.7188 220.158 54.7201C219.226 60.7526 216.557 78.291 215.46 95.933C214.398 113.025 206.806 129.078 206.806 129.078C206.707 129.285 206.65 129.51 206.639 129.74C206.627 129.969 206.661 130.199 206.738 130.415C206.815 130.632 206.934 130.831 207.088 131.002C207.242 131.172 207.428 131.311 207.636 131.409C208.055 131.609 208.536 131.634 208.974 131.478C209.411 131.323 209.769 131 209.968 130.581C209.968 130.581 217.837 114.133 218.954 96.1517C220.038 78.7188 222.688 61.2737 223.617 55.2552V55.2532C223.817 53.9736 224.158 53.1485 224.411 52.7356C224.479 52.804 224.421 52.7115 224.62 53.1087C224.975 53.8113 225.359 55.04 225.593 56.7454C226.597 64.0582 229.394 86.5835 229.638 97.0345C229.649 97.4983 229.843 97.9388 230.179 98.2593C230.514 98.5797 230.963 98.7539 231.427 98.7435C231.657 98.7381 231.883 98.6876 232.094 98.5947C232.304 98.5018 232.494 98.3683 232.653 98.202C232.811 98.0357 232.936 97.8397 233.019 97.6253C233.102 97.4109 233.141 97.1823 233.136 96.9524C232.88 86.0055 230.076 63.67 229.06 56.2708C228.789 54.2983 228.358 52.7442 227.745 51.5306C227.132 50.3169 226.295 49.2765 224.909 49.011Z" fill="black"/>
<path d="M234.593 90.7864C233.706 91.0375 232.882 91.5367 232.247 92.2356C230.977 93.6334 230.278 95.66 230.12 98.1829C230.091 98.6459 230.248 99.1015 230.555 99.4494C230.861 99.7974 231.294 100.009 231.757 100.038C232.22 100.067 232.676 99.9111 233.024 99.6041C233.372 99.2972 233.583 98.8647 233.613 98.4016C233.735 96.4325 234.314 95.1654 234.837 94.5891C235.361 94.0128 235.644 93.9606 236.21 94.1497C236.776 94.3387 237.707 95.0583 238.534 96.677C239.361 98.2957 240.068 100.753 240.331 104.085C241.016 112.735 244.859 120.638 244.859 120.638C244.958 120.845 245.097 121.031 245.269 121.184C245.44 121.338 245.64 121.456 245.857 121.532C246.074 121.608 246.303 121.641 246.533 121.628C246.763 121.616 246.987 121.558 247.195 121.458C247.402 121.359 247.588 121.219 247.741 121.048C247.894 120.877 248.013 120.677 248.089 120.46C248.165 120.243 248.198 120.014 248.185 119.784C248.172 119.554 248.114 119.33 248.015 119.122C248.015 119.122 244.437 111.588 243.822 103.81C243.53 100.127 242.754 97.2459 241.65 95.0852C240.546 92.9245 239.097 91.4233 237.32 90.8294C236.431 90.5324 235.48 90.5353 234.593 90.7864Z" fill="black"/>
<path d="M326.353 228.888C325.905 228.767 325.427 228.83 325.025 229.061C324.623 229.293 324.329 229.674 324.208 230.122C310.867 279.462 303.83 331.876 298.277 384.976C298.253 385.205 298.274 385.436 298.339 385.656C298.404 385.877 298.512 386.082 298.657 386.261C298.802 386.439 298.98 386.588 299.183 386.697C299.385 386.807 299.607 386.876 299.835 386.9C300.297 386.948 300.758 386.811 301.119 386.518C301.479 386.226 301.709 385.803 301.757 385.341C307.304 332.309 314.326 280.071 327.585 231.034C327.645 230.813 327.661 230.581 327.631 230.353C327.602 230.125 327.528 229.905 327.414 229.706C327.299 229.507 327.146 229.332 326.964 229.191C326.782 229.051 326.575 228.948 326.353 228.888Z" fill="black"/>
<path d="M328.382 333.206C324.637 332.806 321.105 333.669 317.843 335.279C317.637 335.38 317.453 335.522 317.301 335.694C317.15 335.867 317.034 336.068 316.96 336.286C316.886 336.503 316.856 336.733 316.871 336.963C316.886 337.192 316.946 337.416 317.048 337.622C317.15 337.828 317.291 338.012 317.464 338.164C317.637 338.315 317.838 338.431 318.055 338.505C318.273 338.579 318.503 338.609 318.732 338.594C318.962 338.579 319.186 338.519 319.392 338.417C322.21 337.027 325.016 336.367 328.011 336.687C328.24 336.711 328.471 336.69 328.691 336.625C328.911 336.56 329.117 336.453 329.296 336.308C329.475 336.164 329.623 335.986 329.733 335.784C329.843 335.582 329.912 335.361 329.937 335.132C329.961 334.904 329.94 334.672 329.875 334.452C329.81 334.232 329.703 334.026 329.558 333.847C329.414 333.668 329.236 333.52 329.034 333.41C328.832 333.3 328.611 333.231 328.382 333.206Z" fill="black"/>
<path d="M397.126 332.519C393.311 332.339 389.461 332.533 385.581 333.128C385.354 333.163 385.136 333.242 384.939 333.361C384.742 333.481 384.571 333.637 384.435 333.823C384.299 334.008 384.201 334.218 384.146 334.442C384.092 334.665 384.081 334.897 384.116 335.124C384.187 335.583 384.437 335.995 384.811 336.269C385.186 336.543 385.654 336.658 386.113 336.587C393.413 335.466 400.572 335.852 407.638 337.554C408.089 337.662 408.564 337.587 408.96 337.345C409.355 337.103 409.638 336.714 409.747 336.263C409.856 335.812 409.781 335.336 409.539 334.94C409.297 334.544 408.907 334.26 408.456 334.152C404.719 333.252 400.941 332.699 397.126 332.519Z" fill="black"/>
<path d="M399.814 260.017C399.375 260.169 399.015 260.489 398.813 260.906C398.61 261.324 398.582 261.805 398.734 262.243C411.59 299.32 419.464 338.955 425.757 379.445C425.829 379.903 426.079 380.314 426.454 380.588C426.829 380.861 427.297 380.975 427.755 380.904C427.982 380.868 428.2 380.789 428.397 380.669C428.593 380.55 428.764 380.393 428.899 380.207C429.035 380.022 429.133 379.811 429.187 379.588C429.242 379.365 429.251 379.133 429.216 378.906C422.909 338.321 415.004 298.485 402.04 261.097C401.888 260.658 401.568 260.298 401.151 260.096C400.733 259.893 400.252 259.865 399.814 260.017Z" fill="black"/>
<path d="M351.577 200.683C351.36 200.758 351.159 200.874 350.987 201.026C350.815 201.179 350.674 201.363 350.573 201.57C350.573 201.57 346.658 209.523 347.87 219.232C348.495 224.238 350.891 228.184 354.331 229.949C357.772 231.713 362.188 230.834 365.448 227.072C371.539 220.056 375.276 210.422 388.552 204.574C388.763 204.481 388.953 204.348 389.112 204.182C389.271 204.015 389.396 203.819 389.479 203.605C389.562 203.391 389.602 203.162 389.597 202.932C389.592 202.702 389.541 202.475 389.448 202.265C389.261 201.841 388.913 201.508 388.48 201.34C388.048 201.172 387.566 201.183 387.142 201.37C372.779 207.698 368.275 218.478 362.806 224.779V224.781C360.296 227.677 358.023 227.908 355.931 226.835C353.839 225.763 351.86 222.923 351.345 218.798C350.277 210.243 353.722 203.105 353.722 203.105C353.823 202.898 353.882 202.674 353.896 202.444C353.909 202.215 353.878 201.985 353.803 201.768C353.728 201.551 353.611 201.35 353.459 201.178C353.307 201.006 353.122 200.866 352.915 200.765C352.498 200.562 352.018 200.532 351.579 200.683L351.577 200.683Z" fill="black"/>
<path d="M356.695 227.152C356.473 227.092 356.241 227.076 356.013 227.105C355.785 227.135 355.565 227.209 355.366 227.323C355.167 227.438 354.992 227.59 354.852 227.772C354.711 227.954 354.608 228.162 354.548 228.384C350.548 243.139 351.318 259.347 351.737 275.265C351.75 275.729 351.946 276.169 352.282 276.488C352.619 276.807 353.069 276.98 353.532 276.968C353.762 276.962 353.989 276.911 354.199 276.817C354.409 276.723 354.598 276.589 354.756 276.423C354.914 276.256 355.038 276.059 355.12 275.845C355.203 275.63 355.242 275.401 355.236 275.171C354.815 259.209 354.125 243.313 357.925 229.3C357.985 229.078 358.001 228.847 357.972 228.619C357.943 228.39 357.869 228.17 357.755 227.971C357.641 227.771 357.488 227.596 357.306 227.456C357.124 227.315 356.916 227.212 356.695 227.152Z" fill="black"/>
<path fill-rule="evenodd" clip-rule="evenodd" d="M364.142 238.428C364.142 239.071 363.887 239.687 363.432 240.141C362.978 240.595 362.362 240.851 361.719 240.851C361.077 240.851 360.461 240.595 360.006 240.141C359.552 239.687 359.297 239.071 359.297 238.428C359.297 237.786 359.552 237.169 360.006 236.715C360.461 236.261 361.077 236.006 361.719 236.006C362.362 236.006 362.978 236.261 363.432 236.715C363.887 237.169 364.142 237.786 364.142 238.428Z" fill="black"/>
<path fill-rule="evenodd" clip-rule="evenodd" d="M363.787 254.456C363.787 255.098 363.531 255.715 363.077 256.169C362.623 256.623 362.007 256.878 361.364 256.878C360.722 256.878 360.106 256.623 359.651 256.169C359.197 255.715 358.942 255.098 358.942 254.456C358.942 253.814 359.197 253.197 359.651 252.743C360.106 252.289 360.722 252.034 361.364 252.034C362.007 252.034 362.623 252.289 363.077 252.743C363.531 253.197 363.787 253.814 363.787 254.456Z" fill="black"/>
<path fill-rule="evenodd" clip-rule="evenodd" d="M363.229 271.146C363.229 271.788 362.973 272.405 362.519 272.859C362.065 273.313 361.449 273.568 360.806 273.568C360.164 273.568 359.547 273.313 359.093 272.859C358.639 272.405 358.384 271.788 358.384 271.146C358.384 270.504 358.639 269.887 359.093 269.433C359.547 268.979 360.164 268.724 360.806 268.724C361.449 268.724 362.065 268.979 362.519 269.433C362.973 269.887 363.229 270.504 363.229 271.146Z" fill="black"/>
<path d="M238.987 49.4563C237.456 49.2109 235.949 50.0546 234.864 51.3899C233.78 52.7247 232.89 54.6294 232.116 57.3059C230.601 62.539 230.497 71.5425 230.648 79.4954C230.799 87.4482 231.292 94.2141 231.292 94.2141C231.326 94.6769 231.542 95.1074 231.893 95.4111C232.243 95.7147 232.7 95.8666 233.163 95.8333C233.393 95.8167 233.616 95.7551 233.822 95.6519C234.027 95.5488 234.211 95.4062 234.361 95.2322C234.511 95.0583 234.626 94.8565 234.698 94.6382C234.771 94.4199 234.799 94.1895 234.782 93.9602C234.782 93.9602 234.295 87.2748 234.146 79.429C233.997 71.5831 234.273 62.4404 235.478 58.2805V58.2785C236.169 55.8835 236.962 54.3596 237.581 53.5969C238.201 52.8341 238.418 52.9109 238.433 52.9133C238.448 52.9153 238.761 53.0366 239.101 53.7102C239.441 54.3837 239.72 55.482 239.737 56.7863C239.76 58.5496 240.125 62.0539 240.732 66.7883C241.338 71.5227 242.189 77.3932 243.195 83.5129C245.206 95.7522 247.794 108.902 250.4 116.169C256.366 132.822 267.234 151.51 288.448 172.103C307.922 190.998 327.551 200.414 343.933 202.62C343.944 202.622 343.956 202.623 343.968 202.624C344.04 202.632 344.101 202.674 344.153 202.757C344.185 202.825 344.191 202.902 344.163 202.968C344.158 202.979 344.152 202.99 344.147 203.001C324.859 245.292 335.472 317.403 341.136 384.501C341.155 384.731 341.219 384.954 341.325 385.158C341.43 385.362 341.575 385.544 341.751 385.693C341.926 385.841 342.13 385.953 342.349 386.023C342.568 386.093 342.799 386.118 343.028 386.099C343.257 386.079 343.48 386.015 343.684 385.909C343.889 385.804 344.07 385.659 344.218 385.483C344.366 385.307 344.478 385.104 344.548 384.885C344.618 384.666 344.644 384.435 344.624 384.206C338.948 316.962 328.882 244.91 347.333 204.454L347.317 204.488C347.843 203.395 347.804 202.115 347.223 201.058C347.219 201.051 347.215 201.045 347.211 201.038C346.624 200.005 345.571 199.283 344.367 199.146C328.935 197.058 309.921 188.058 290.889 169.591C270.003 149.318 259.49 131.157 253.697 114.99C251.303 108.309 248.649 95.1006 246.65 82.9446C245.651 76.8667 244.805 71.0314 244.205 66.345C243.605 61.6586 243.257 58.0278 243.24 56.7396C243.217 54.9919 242.88 53.4249 242.228 52.1341C241.577 50.8433 240.522 49.7018 238.99 49.4564L238.987 49.4563Z" fill="black"/>
<path d="M231.529 154.919C231.073 155.009 230.672 155.276 230.414 155.661C230.155 156.046 230.06 156.519 230.15 156.974C239.215 203.093 266.392 236.568 321.318 248.777C321.771 248.877 322.245 248.794 322.637 248.545C323.028 248.296 323.305 247.901 323.406 247.448C323.506 246.995 323.423 246.521 323.174 246.13C322.925 245.738 322.53 245.461 322.077 245.361C268.223 233.39 242.458 201.449 233.583 156.298C233.494 155.843 233.227 155.442 232.841 155.183C232.456 154.925 231.984 154.83 231.529 154.919Z" fill="black"/>
<path d="M258.429 128.394C257.965 128.385 257.517 128.562 257.183 128.883C256.849 129.205 256.656 129.647 256.648 130.111C256.378 144.92 252.081 156.898 247.601 161.55C246.481 162.713 245.388 163.399 244.437 163.675C243.485 163.951 242.67 163.89 241.722 163.405C239.826 162.436 237.428 159.299 235.538 153.181C235.401 152.738 235.094 152.367 234.684 152.15C234.274 151.933 233.794 151.888 233.351 152.025C233.131 152.092 232.927 152.203 232.75 152.349C232.573 152.496 232.426 152.676 232.319 152.88C232.212 153.083 232.145 153.306 232.124 153.535C232.103 153.763 232.127 153.994 232.195 154.214C234.22 160.773 236.777 164.809 240.128 166.523C241.804 167.38 243.686 167.538 245.411 167.038C247.136 166.538 248.7 165.454 250.122 163.978C255.812 158.071 259.865 145.594 260.146 130.175C260.154 129.711 259.978 129.263 259.656 128.929C259.334 128.595 258.893 128.403 258.429 128.394Z" fill="black"/>
<path d="M233.769 122.447C233.318 122.557 232.93 122.843 232.69 123.24C232.449 123.637 232.377 124.113 232.488 124.564C233.536 128.833 237.116 132.929 242.12 136.146C245.041 138.025 247.908 142.301 249.868 146.113C251.829 149.924 252.952 153.189 252.952 153.189C253.103 153.627 253.422 153.988 253.839 154.192C254.256 154.395 254.736 154.425 255.175 154.275C255.614 154.124 255.974 153.805 256.178 153.388C256.382 152.971 256.411 152.491 256.261 152.052C256.261 152.052 255.064 148.563 252.98 144.511C250.895 140.459 247.992 135.762 244.013 133.202C244.013 133.202 244.013 133.201 244.013 133.2C239.537 130.323 236.597 126.626 235.886 123.73C235.831 123.506 235.733 123.296 235.597 123.111C235.461 122.925 235.29 122.769 235.093 122.649C234.897 122.53 234.678 122.451 234.451 122.416C234.224 122.381 233.992 122.392 233.769 122.447Z" fill="black"/>
<path d="M239.441 129.976C239.213 129.944 238.981 129.957 238.759 130.015C238.536 130.072 238.327 130.173 238.144 130.312C234.801 132.831 232.795 136.835 232.441 142.105C232.425 142.334 232.455 142.564 232.529 142.782C232.602 143 232.718 143.201 232.869 143.374C233.021 143.547 233.204 143.688 233.41 143.79C233.616 143.892 233.84 143.953 234.07 143.968C234.299 143.983 234.529 143.953 234.747 143.88C234.964 143.806 235.166 143.691 235.339 143.539C235.512 143.388 235.653 143.204 235.755 142.998C235.857 142.792 235.918 142.568 235.933 142.339C236.239 137.793 237.752 134.989 240.249 133.107C240.433 132.968 240.588 132.795 240.704 132.597C240.821 132.399 240.898 132.18 240.93 131.953C240.962 131.725 240.949 131.493 240.892 131.271C240.834 131.048 240.733 130.839 240.595 130.656C240.457 130.472 240.284 130.317 240.085 130.201C239.887 130.084 239.668 130.008 239.441 129.976Z" fill="black"/>
<path fill-rule="evenodd" clip-rule="evenodd" d="M247.267 138.681C251.787 144.404 254.607 152.62 254.607 152.62C251.457 161.33 246.787 166.4 242.337 165.47C238.717 155.522 240.827 146.682 247.267 138.681Z" fill="black"/>
<path d="M360.359 162.962C359.98 162.694 359.51 162.587 359.053 162.665C358.595 162.743 358.188 163 357.919 163.378C355.503 166.79 353.205 168.276 350.542 167.978C350.081 167.926 349.619 168.06 349.256 168.349C348.894 168.638 348.661 169.06 348.609 169.521C348.557 169.982 348.691 170.444 348.98 170.807C349.269 171.169 349.691 171.402 350.152 171.454C354.389 171.93 357.991 169.334 360.775 165.402C361.043 165.023 361.15 164.553 361.072 164.096C360.994 163.638 360.737 163.231 360.359 162.962Z" fill="black"/>
<path d="M351.72 123.204C351.491 123.183 351.26 123.207 351.04 123.274C350.821 123.342 350.617 123.453 350.439 123.599C350.262 123.746 350.116 123.926 350.009 124.13C349.901 124.333 349.835 124.555 349.814 124.784C349.163 131.744 347.431 136.915 344.751 140.161C342.071 143.408 338.496 144.956 333.253 144.697C333.024 144.685 332.794 144.719 332.578 144.797C332.361 144.874 332.162 144.993 331.992 145.148C331.822 145.302 331.683 145.488 331.585 145.696C331.487 145.904 331.43 146.129 331.419 146.359C331.408 146.588 331.442 146.818 331.519 147.034C331.597 147.251 331.716 147.45 331.87 147.62C332.025 147.79 332.211 147.928 332.419 148.027C332.627 148.125 332.852 148.181 333.081 148.193C339.148 148.492 344.098 146.451 347.45 142.39C350.803 138.329 352.611 132.473 353.3 125.111C353.322 124.882 353.298 124.651 353.23 124.431C353.162 124.211 353.052 124.007 352.905 123.83C352.758 123.653 352.578 123.507 352.375 123.399C352.171 123.292 351.949 123.226 351.72 123.204Z" fill="black"/>
<path d="M342.583 130.245C341.712 130.272 340.852 130.478 340.062 130.894C339.651 131.11 339.343 131.48 339.205 131.923C339.067 132.367 339.111 132.846 339.327 133.257C339.543 133.668 339.914 133.976 340.357 134.114C340.8 134.251 341.28 134.207 341.691 133.991C342.37 133.634 342.974 133.6 343.978 133.966C344.414 134.125 344.895 134.104 345.315 133.908C345.736 133.712 346.061 133.357 346.22 132.921C346.379 132.485 346.359 132.004 346.163 131.583C345.968 131.162 345.613 130.836 345.177 130.677C344.339 130.371 343.455 130.219 342.583 130.245Z" fill="black"/>
<path d="M357.21 131.398C356.359 131.521 355.499 131.834 354.683 132.32C354.284 132.557 353.996 132.943 353.882 133.393C353.767 133.842 353.836 134.319 354.074 134.718C354.311 135.117 354.697 135.405 355.147 135.519C355.596 135.634 356.073 135.565 356.472 135.327C357.48 134.728 357.998 134.732 358.531 134.917C359.063 135.103 359.751 135.66 360.464 136.7C360.727 137.083 361.13 137.345 361.586 137.43C362.042 137.515 362.513 137.416 362.896 137.154C363.086 137.024 363.248 136.858 363.373 136.665C363.499 136.473 363.585 136.257 363.628 136.031C363.67 135.805 363.667 135.573 363.62 135.348C363.572 135.123 363.481 134.91 363.351 134.72C362.394 133.325 361.236 132.154 359.681 131.613C358.904 131.342 358.062 131.275 357.21 131.398Z" fill="black"/>
<path fill-rule="evenodd" clip-rule="evenodd" d="M359.284 143.68C358.908 144.638 358.294 145.458 357.579 145.959C356.864 146.46 356.105 146.601 355.471 146.351C354.836 146.102 354.376 145.482 354.194 144.628C354.011 143.774 354.12 142.756 354.497 141.798C354.873 140.84 355.487 140.021 356.202 139.52C356.917 139.019 357.676 138.878 358.31 139.127C358.945 139.377 359.405 139.997 359.587 140.851C359.77 141.704 359.661 142.722 359.284 143.68Z" fill="black"/>
<path fill-rule="evenodd" clip-rule="evenodd" d="M343.635 138.962C343.48 139.356 343.275 139.725 343.032 140.05C342.789 140.374 342.513 140.647 342.219 140.853C341.925 141.059 341.62 141.194 341.319 141.25C341.019 141.305 340.73 141.281 340.469 141.179C339.942 140.972 339.561 140.457 339.41 139.748C339.258 139.04 339.348 138.195 339.661 137.4C339.974 136.605 340.483 135.925 341.076 135.509C341.67 135.093 342.299 134.976 342.826 135.183C343.087 135.286 343.315 135.465 343.497 135.71C343.679 135.956 343.811 136.262 343.886 136.613C343.961 136.964 343.978 137.352 343.934 137.755C343.891 138.158 343.789 138.568 343.635 138.962Z" fill="black"/>
<path d="M403.091 205.48C400.684 205.891 398.336 207.223 396.175 209.488C391.853 214.016 388.025 222.24 384.579 235.962C372.069 285.776 372.397 329.332 371.228 383.909C371.218 384.373 371.392 384.822 371.713 385.157C372.034 385.492 372.475 385.686 372.939 385.697C373.169 385.701 373.397 385.661 373.611 385.578C373.826 385.494 374.021 385.369 374.187 385.21C374.353 385.051 374.486 384.861 374.579 384.651C374.671 384.44 374.721 384.213 374.726 383.984C375.896 329.353 375.584 286.146 387.974 236.814C391.348 223.376 395.165 215.616 398.708 211.904C400.48 210.047 402.121 209.196 403.681 208.929C405.241 208.662 406.811 208.97 408.491 209.802C411.851 211.465 415.425 215.321 418.509 219.706C421.593 224.091 424.233 228.963 426.089 232.589C452.268 283.761 462.16 322.204 462.908 384.45C462.91 384.68 462.958 384.907 463.048 385.119C463.138 385.33 463.27 385.521 463.434 385.682C463.598 385.843 463.792 385.97 464.006 386.055C464.219 386.141 464.447 386.183 464.677 386.181C464.907 386.178 465.134 386.131 465.346 386.04C465.557 385.95 465.749 385.818 465.909 385.654C466.07 385.489 466.197 385.295 466.282 385.081C466.368 384.868 466.41 384.639 466.408 384.409C465.655 321.806 455.545 282.485 429.204 230.995C427.315 227.306 424.616 222.305 421.372 217.693C418.128 213.08 414.386 208.814 410.044 206.665C407.874 205.591 405.498 205.068 403.091 205.48Z" fill="black"/>
<path d="M401.876 82.4758C393.556 81.6195 387.62 88.4523 385.847 90.761C369.486 85.1692 357.077 87.379 348.644 93.1321C339.994 99.0329 335.545 108.358 334.57 116.197C334.242 118.833 332.714 120.861 331.368 122.439C330.696 123.228 330.091 123.791 329.613 124.691C329.374 125.141 329.068 125.924 329.454 126.81C329.841 127.696 330.624 128.022 331.189 128.171C334.429 129.03 338.416 129.532 342.519 128.193C346.047 127.041 349.529 124.393 352.593 119.9C356.568 125.619 360.674 129.221 365.255 131.31C369.827 133.394 374.858 134.053 380.495 134.57C380.275 135.223 380.176 135.192 379.986 136.222C379.529 138.694 379.315 142.277 380.198 146.808C380.198 146.809 380.198 146.809 380.198 146.81C380.654 149.135 381.112 150.659 382.532 151.618C383.243 152.098 384.245 152.208 384.982 151.992C385.719 151.775 386.246 151.372 386.714 150.937C388.584 149.198 389.923 146.377 390.829 144.925V144.923C391.683 143.563 392.511 143.034 393.148 142.88C393.785 142.726 394.386 142.855 395.109 143.407C396.554 144.512 398.033 147.518 397.808 151.527C397.597 155.284 395.275 157.524 392.777 159.013C390.278 160.502 387.822 161.005 387.822 161.005C387.536 161.063 387.269 161.19 387.046 161.377C386.822 161.563 386.648 161.803 386.54 162.073C380.468 177.295 383.124 193.852 395.888 205.622C407.71 216.523 419.364 217.319 428.615 214.12C437.865 210.922 444.789 204.038 448.359 199.909C448.359 199.909 448.359 199.908 448.359 199.907C450.569 197.349 451.72 195.434 451.863 193.482C451.934 192.505 451.646 191.498 451.072 190.773C450.497 190.048 449.736 189.621 448.974 189.349C447.861 188.951 443.961 186.634 440.285 183.859C436.608 181.083 432.882 177.703 431.31 175.361V175.359C427.196 169.216 426.381 161.715 426.503 152.855C426.625 143.994 427.69 133.885 426.984 122.878V122.876C426.004 107.598 422.355 97.7813 417.574 91.5988C412.792 85.416 406.874 82.9898 401.876 82.4758ZM401.517 85.9563C405.709 86.3874 410.595 88.2971 414.804 93.7395C419.013 99.1819 422.539 108.281 423.489 123.101C424.173 133.745 423.129 143.709 423.003 152.808C422.878 161.907 423.678 170.252 428.404 177.308C428.404 177.309 428.404 177.309 428.404 177.31C430.481 180.406 434.341 183.756 438.177 186.652C442.013 189.547 445.551 191.842 447.798 192.644C448.146 192.768 448.295 192.901 448.331 192.947C448.367 192.993 448.393 192.967 448.374 193.226C448.336 193.744 447.702 195.317 445.712 197.62C442.362 201.496 435.751 207.95 427.474 210.812C419.197 213.674 409.331 213.253 398.263 203.048C386.724 192.408 384.301 178.02 389.536 164.152C390.566 163.883 392.337 163.351 394.57 162.021C397.641 160.191 401.015 156.882 401.304 151.722C401.579 146.813 399.998 142.741 397.236 140.628C395.854 139.572 394.064 139.057 392.325 139.478C390.587 139.899 389.056 141.164 387.864 143.066C387.864 143.066 387.864 143.067 387.864 143.068C386.8 144.771 385.294 147.441 384.364 148.328C384.325 148.207 383.966 147.82 383.636 146.138V146.136C382.839 142.048 383.046 138.931 383.429 136.859C383.812 134.786 384.306 133.89 384.306 133.89C384.441 133.634 384.51 133.349 384.508 133.06C384.506 132.771 384.432 132.486 384.293 132.233C384.154 131.979 383.954 131.764 383.712 131.606C383.469 131.449 383.192 131.353 382.903 131.329C376.372 130.786 371.201 130.172 366.708 128.124C362.216 126.076 358.245 122.599 354.042 115.88C353.881 115.623 353.656 115.412 353.389 115.268C353.122 115.124 352.822 115.052 352.519 115.059C352.215 115.066 351.919 115.151 351.659 115.307C351.399 115.463 351.184 115.684 351.034 115.949C347.975 121.368 344.652 123.816 341.435 124.867C338.807 125.724 336.207 125.528 333.755 125.052C333.89 124.89 333.883 124.888 334.034 124.71C335.477 123.018 337.583 120.358 338.046 116.628C338.901 109.761 342.938 101.262 350.618 96.0228C358.299 90.7833 369.675 88.564 385.894 94.4368C386.255 94.5673 386.648 94.5757 387.014 94.4607C387.38 94.3457 387.698 94.1135 387.919 93.8001C387.919 93.8001 394.342 85.2177 401.519 85.9564L401.517 85.9563Z" fill="black"/>
<path fill-rule="evenodd" clip-rule="evenodd" d="M382.757 133.073C369.637 131.981 361.207 130.636 352.557 116.808C346.117 128.215 337.757 128.1 331.637 126.479C329.037 125.791 335.517 122.778 336.307 116.412C338.137 101.706 353.277 80.7662 386.487 92.7912C386.487 92.7912 393.157 83.3372 401.697 84.2162C410.887 85.1612 423.307 92.8892 425.237 122.989C426.627 144.641 421.017 163.135 429.857 176.334C433.507 181.773 445.027 189.797 448.387 190.996C450.607 191.788 451.237 193.902 447.037 198.764C440.117 206.769 419.967 225.44 397.077 204.335C384.817 193.03 382.317 177.385 388.167 162.721C388.167 162.721 399.057 160.541 399.557 151.624C400.057 142.707 393.437 137.467 389.347 143.995C387.367 147.165 383.607 155.093 381.917 146.472C380.237 137.852 382.757 133.073 382.757 133.073ZM395.587 171.774L395.447 165.99C395.417 165.024 394.617 164.261 393.647 164.285C392.687 164.31 391.917 165.114 391.947 166.08L392.087 171.87C391.247 172.453 390.687 173.43 390.687 174.537C390.687 176.321 392.137 177.768 393.917 177.768C395.697 177.768 397.147 176.321 397.147 174.537C397.147 173.367 396.527 172.341 395.587 171.774Z" fill="black"/>
<path d="M336.708 159.292C336.249 159.355 335.833 159.598 335.552 159.968C335.272 160.337 335.149 160.803 335.212 161.263C337.554 178.352 348.056 187.099 359.378 189.372C370.7 191.645 382.817 187.88 389.183 180.363C389.331 180.187 389.444 179.984 389.514 179.765C389.584 179.546 389.61 179.316 389.591 179.087C389.572 178.858 389.508 178.635 389.403 178.43C389.298 178.226 389.153 178.044 388.978 177.896C388.802 177.747 388.599 177.635 388.38 177.565C388.162 177.495 387.931 177.468 387.702 177.487C387.473 177.506 387.25 177.57 387.045 177.676C386.841 177.781 386.659 177.925 386.511 178.101C381.226 184.342 370.153 187.965 360.068 185.941C349.982 183.916 340.859 176.678 338.681 160.788C338.65 160.561 338.574 160.341 338.458 160.143C338.342 159.944 338.188 159.77 338.005 159.632C337.821 159.493 337.613 159.391 337.39 159.333C337.168 159.275 336.936 159.261 336.708 159.292Z" fill="black"/>
</g>
<defs>
<clipPath id="clip0_1_291">
<rect width="465.954" height="386.23" fill="white" transform="translate(0.453125 0.679443)"/>
</clipPath>
</defs>
</svg>