<svg width="342" height="428" viewBox="0 0 342 428" fill="none" xmlns="http://www.w3.org/2000/svg">
<g clip-path="url(#clip0_1_394)">
<path d="M128.351 110.917C128.122 110.896 127.892 110.921 127.672 110.99C127.453 111.059 127.249 111.17 127.073 111.318C126.897 111.465 126.751 111.646 126.645 111.849C126.538 112.053 126.473 112.276 126.453 112.505C125.903 118.689 126.392 124.239 128.304 128.954C130.217 133.669 133.603 137.5 138.513 140.044C138.717 140.149 138.94 140.214 139.17 140.233C139.399 140.253 139.629 140.227 139.848 140.157C140.068 140.088 140.271 139.976 140.447 139.828C140.622 139.679 140.767 139.498 140.873 139.294C141.086 138.882 141.127 138.402 140.986 137.96C140.846 137.518 140.536 137.15 140.125 136.936C135.885 134.74 133.177 131.654 131.549 127.639C129.92 123.624 129.423 118.63 129.939 112.815C129.96 112.586 129.935 112.355 129.866 112.136C129.797 111.917 129.686 111.713 129.538 111.537C129.391 111.361 129.21 111.215 129.007 111.109C128.803 111.002 128.58 110.937 128.351 110.917Z" fill="black"/>
<path d="M101.431 148.118C101.203 148.094 100.972 148.116 100.751 148.182C100.531 148.248 100.326 148.357 100.148 148.503C99.9698 148.648 99.8218 148.827 99.7126 149.029C99.6035 149.231 99.5352 149.453 99.5118 149.682C99.4884 149.91 99.5103 150.142 99.5763 150.362C99.6422 150.582 99.7509 150.787 99.8962 150.965C106.314 158.842 115.024 161.012 124.463 159.116C124.688 159.071 124.902 158.981 125.093 158.853C125.284 158.725 125.448 158.561 125.575 158.369C125.702 158.178 125.791 157.964 125.835 157.738C125.879 157.513 125.879 157.281 125.834 157.055C125.788 156.83 125.699 156.616 125.571 156.425C125.443 156.234 125.279 156.07 125.087 155.943C124.896 155.816 124.681 155.727 124.456 155.683C124.23 155.638 123.998 155.639 123.773 155.684C115.188 157.408 108.285 155.718 102.611 148.754C102.466 148.576 102.287 148.428 102.085 148.319C101.882 148.209 101.66 148.141 101.431 148.118Z" fill="black"/>
<path d="M107.062 95.3717C98.8088 95.3717 92.3082 102.888 92.3083 111.866C92.3083 120.843 98.8089 128.358 107.062 128.358C115.316 128.358 121.816 120.843 121.816 111.866C121.816 102.888 115.316 95.3717 107.062 95.3717ZM107.062 98.8541C113.181 98.8541 118.332 104.549 118.332 111.866C118.332 119.183 113.181 124.876 107.062 124.876C100.943 124.876 95.7927 119.183 95.7927 111.866C95.7926 104.549 100.943 98.8541 107.062 98.8541Z" fill="black"/>
<path d="M142.08 93.0026C139.147 93.0026 136.811 95.2156 135.279 98.1764C133.747 101.137 132.867 105.038 132.867 109.333C132.867 113.627 133.747 117.53 135.279 120.491C136.811 123.452 139.147 125.665 142.08 125.665C145.012 125.665 147.347 123.452 148.879 120.491C150.411 117.53 151.291 113.627 151.291 109.333C151.291 105.038 150.411 101.137 148.879 98.1764C147.347 95.2156 145.013 93.0026 142.08 93.0026ZM142.08 96.1608C143.363 96.1608 144.843 97.2493 146.074 99.6276C147.305 102.006 148.133 105.48 148.133 109.333C148.133 113.185 147.305 116.659 146.074 119.038C144.843 121.416 143.363 122.505 142.08 122.505C140.797 122.505 139.314 121.416 138.084 119.038C136.853 116.659 136.025 113.185 136.025 109.333C136.025 105.48 136.853 102.006 138.084 99.6276C139.314 97.2493 140.797 96.1608 142.08 96.1608Z" fill="black"/>
<path d="M127.068 101.442C124.055 101.763 121.115 103.222 118.222 105.506C117.859 105.794 117.624 106.215 117.57 106.676C117.516 107.136 117.648 107.599 117.935 107.963C118.223 108.327 118.643 108.562 119.104 108.616C119.565 108.671 120.028 108.54 120.392 108.252C122.945 106.237 125.308 105.149 127.437 104.922C129.566 104.696 131.534 105.242 133.644 106.866C133.826 107.006 134.034 107.109 134.256 107.169C134.478 107.229 134.71 107.244 134.938 107.214C135.166 107.185 135.386 107.11 135.585 106.995C135.784 106.881 135.959 106.728 136.099 106.545C136.382 106.178 136.507 105.712 136.447 105.252C136.387 104.792 136.147 104.375 135.779 104.092C133.092 102.026 130.081 101.121 127.068 101.442Z" fill="black"/>
<path d="M102.277 82.8033C96.0091 83.6969 91.2542 87.1491 87.4294 91.4458C87.2766 91.6175 87.1592 91.8176 87.0838 92.0347C87.0084 92.2518 86.9765 92.4818 86.9899 92.7112C87.0033 92.9406 87.0618 93.165 87.162 93.3719C87.2622 93.5787 87.4022 93.7638 87.5739 93.9165C87.7456 94.0693 87.9457 94.1868 88.1628 94.2622C88.3799 94.3376 88.6098 94.3694 88.8392 94.356C89.0687 94.3426 89.2932 94.2841 89.5 94.1839C89.7068 94.0837 89.8919 93.9437 90.0446 93.772C94.7369 88.5009 99.9469 85.1113 108.597 86.2935C108.825 86.3246 109.057 86.3104 109.279 86.252C109.501 86.1935 109.71 86.0918 109.893 85.9527C110.076 85.8136 110.23 85.6398 110.346 85.4412C110.462 85.2426 110.537 85.0232 110.568 84.7954C110.599 84.5677 110.585 84.3361 110.527 84.1138C110.468 83.8915 110.366 83.6828 110.227 83.4998C110.088 83.3168 109.914 83.163 109.716 83.0472C109.517 82.9313 109.298 82.8557 109.07 82.8247C106.623 82.4902 104.366 82.5059 102.277 82.8033Z" fill="black"/>
<path d="M138.173 84.1355C136.812 84.1705 135.42 84.369 134.017 84.7234C133.567 84.8372 133.181 85.1249 132.944 85.5234C132.706 85.9219 132.636 86.3985 132.75 86.8484C132.863 87.2982 133.151 87.6844 133.55 87.9221C133.948 88.1598 134.425 88.2296 134.875 88.116C139.635 86.9136 143.404 87.6746 146.843 90.9734C147.009 91.1324 147.205 91.2572 147.419 91.3406C147.633 91.424 147.862 91.4644 148.092 91.4595C148.322 91.4545 148.548 91.4045 148.759 91.312C148.969 91.2195 149.159 91.0864 149.318 90.9204C149.477 90.7545 149.602 90.5589 149.685 90.3447C149.769 90.1306 149.809 89.9019 149.804 89.6721C149.799 89.4423 149.749 89.2158 149.657 89.0054C149.564 88.7949 149.431 88.6048 149.265 88.4458C146.089 85.3999 142.259 84.0316 138.173 84.1355Z" fill="black"/>
<path d="M151.275 128.171C151.045 128.16 150.816 128.195 150.6 128.273C150.383 128.352 150.185 128.472 150.015 128.627C149.845 128.782 149.708 128.969 149.61 129.177C149.513 129.386 149.457 129.611 149.447 129.841C148.038 160.887 135.51 178.813 119.308 184.858C103.107 190.903 82.7064 185.184 65.0876 167.378C64.761 167.048 64.3169 166.861 63.8528 166.859C63.3887 166.857 62.9428 167.039 62.613 167.366C62.2831 167.692 62.0963 168.136 62.0937 168.6C62.0911 169.064 62.273 169.51 62.5993 169.84C80.9084 188.344 102.755 194.77 120.533 188.137C138.311 181.504 151.493 161.932 152.943 129.999C152.964 129.535 152.8 129.082 152.488 128.739C152.175 128.396 151.739 128.192 151.275 128.171Z" fill="black"/>
<path d="M115.66 0.748609C102.202 1.47911 88.1334 7.12927 76.7419 21.9752C75.3495 21.2444 72.6196 19.9432 67.6598 18.9205C61.0424 17.5559 51.511 17.126 39.8473 20.7369H39.8453C35.044 22.2286 27.6739 26.7635 20.9215 34.7683C14.169 42.773 8.15855 54.2681 6.6461 69.4849C6.32906 72.669 4.50378 81.9395 6.19298 93.7642C7.88218 105.589 13.1043 120.175 26.6383 134.594C30.9395 139.165 41.5492 145.787 53.732 147.116H53.7341C55.1713 147.271 56.8757 147.058 57.9938 145.631C58.5529 144.918 58.8136 143.937 58.738 142.975C58.6623 142.014 58.3116 141.048 57.7204 139.997C56.8406 138.436 55.5506 135.214 54.5426 132.473C54.0387 131.103 53.5928 129.839 53.2712 128.913C53.1104 128.45 52.9813 128.072 52.8884 127.803C52.8419 127.669 52.8046 127.564 52.7751 127.481C52.7603 127.439 52.748 127.406 52.732 127.364C52.724 127.343 52.7173 127.321 52.6988 127.278C52.6898 127.256 52.6776 127.232 52.6501 127.176C52.6363 127.148 52.6199 127.113 52.5837 127.053C52.5569 127.009 52.4567 126.887 52.3903 126.805C52.3386 126.772 51.5309 126.262 51.5309 126.262C51.5309 126.262 51.263 126.212 51.1911 126.207C51.0473 126.197 50.9937 126.207 50.9469 126.207C50.8533 126.217 50.8202 126.22 50.7868 126.225C50.7201 126.235 50.6788 126.243 50.6286 126.252C50.5282 126.27 50.4077 126.294 50.2516 126.322C49.9396 126.378 49.4945 126.454 48.943 126.525C47.8401 126.669 46.3114 126.794 44.6325 126.717C41.2747 126.562 37.4446 125.612 34.8493 122.576C33.1774 120.623 31.4455 117.01 31.2907 113.746C31.1359 110.482 32.1369 107.682 36.2907 105.881C40.7036 103.971 44.3406 104.722 47.238 106.418C50.1353 108.115 52.1684 110.954 52.7126 112.619C53.7133 115.679 54.9808 119.803 56.4313 123.41C57.1566 125.214 57.9242 126.89 58.7731 128.285C59.6212 129.679 60.4923 130.86 61.8942 131.504H61.8962H61.8982C64.9298 132.897 68.1614 132.102 70.1931 130C72.2258 127.898 73.292 124.719 73.2361 121.156C73.2104 119.517 72.5937 117.777 71.7439 115.682C70.8941 113.586 69.7682 111.224 68.5721 108.834C66.1798 104.053 63.4909 99.1133 62.3298 96.4454C60.9903 93.3609 57.9967 88.0103 58.9353 81.3204C59.8489 74.8081 64.6498 66.798 79.5096 58.5841C82.1054 61.2532 96.1119 74.7922 119.724 79.6075C126.233 80.9352 136.069 82.0078 146.435 79.5355C156.801 77.063 167.691 70.961 175.929 58.2034C177.646 55.5461 180.43 49.6824 179.933 42.0218C179.437 34.3612 175.535 25.052 164.312 15.973C162.351 14.3882 157.952 11.5502 151.793 8.66438C145.633 5.77858 137.775 2.90188 129.127 1.50618C124.803 0.808377 120.269 0.494258 115.66 0.744458L115.66 0.748609ZM115.877 4.19197C120.189 3.98397 124.453 4.30141 128.568 4.96541C136.797 6.29351 144.375 9.0576 150.306 11.8365C156.236 14.6149 160.581 17.4642 162.111 18.6998C172.743 27.3007 176.006 35.5675 176.439 42.2545C176.873 48.9414 174.353 54.1966 172.988 56.3092C165.231 68.3216 155.276 73.8348 145.623 76.1373C135.969 78.4398 126.612 77.4466 120.424 76.1844C95.4466 71.0909 81.0368 55.2039 81.0368 55.2039C80.7749 54.9148 80.424 54.7215 80.0397 54.6546C79.6554 54.5877 79.2598 54.6512 78.9157 54.8348C62.4854 63.5962 56.5886 72.8706 55.4704 80.8407C54.3522 88.8108 57.9873 95.241 59.1188 97.8465H59.1208C60.4317 100.859 63.0884 105.703 65.4411 110.405C66.6175 112.756 67.7135 115.059 68.5017 117.003C69.2899 118.946 69.7267 120.62 69.7361 121.216C69.7802 124.023 68.8716 126.338 67.6775 127.573C66.4834 128.808 65.2373 129.191 63.3591 128.327H63.3551C63.1549 128.235 62.447 127.591 61.7633 126.468C61.0796 125.344 60.3615 123.808 59.6774 122.106C58.3091 118.704 57.056 114.644 56.0387 111.534C55.1258 108.74 52.6791 105.552 49.0055 103.401C45.3318 101.25 40.3081 100.33 34.9 102.671H34.898C29.5748 104.979 27.591 109.622 27.7945 113.913C27.9979 118.203 29.9675 122.256 32.189 124.852C35.6467 128.897 40.574 130.036 44.4722 130.216C46.4213 130.306 48.1447 130.161 49.3941 129.999C49.615 129.97 49.7279 129.946 49.9175 129.917C49.9375 129.975 49.9453 130.001 49.9664 130.061C50.2917 130.998 50.7426 132.283 51.2574 133.682C52.2869 136.482 53.5273 139.686 54.6714 141.716C55.0912 142.463 55.2291 142.992 55.2496 143.251C55.27 143.51 55.2362 143.476 55.2395 143.472C55.2465 143.462 54.8004 143.709 54.1106 143.636C43.0035 142.424 32.6036 135.825 29.1888 132.196C16.1516 118.306 11.2618 104.498 9.65752 93.2684C8.05323 82.0381 9.75321 73.5948 10.1282 69.8289C11.5678 55.3457 17.2469 44.55 23.597 37.0222C29.9462 29.4954 37.0892 25.2558 40.8821 24.0769C51.9585 20.6478 60.8419 21.0842 66.9544 22.3446C73.0669 23.605 76.2688 25.6219 76.2688 25.6219C76.6438 25.8553 77.0931 25.9383 77.5267 25.8542C77.9603 25.7701 78.3461 25.5252 78.6067 25.1687C89.5816 10.1743 102.94 4.81221 115.876 4.18831L115.877 4.19197Z" fill="black"/>
<path fill-rule="evenodd" clip-rule="evenodd" d="M79.7398 56.3792C79.7398 56.3792 94.5258 72.6893 120.074 77.8993C132.771 80.4893 158.464 82.0294 174.459 57.2594C177.54 52.4894 185.067 35.0193 163.212 17.3393C156.231 11.6993 107.226 -16.8906 77.1948 24.1394C77.1948 24.1394 63.1048 15.3693 40.3648 22.4093C31.7708 25.0793 11.3388 39.9593 8.38679 69.6593C7.69479 76.6093 1.34177 105.089 27.9138 133.399C31.7718 137.499 42.2768 144.109 53.9218 145.379C56.0508 145.609 58.2208 144.459 56.1958 140.859C54.1718 137.269 51.1338 128.009 51.0838 127.959C51.0328 127.899 39.5728 130.799 33.5198 123.719C29.6258 119.169 26.1178 108.389 35.5948 104.279C45.4158 100.029 52.9188 107.619 54.3758 112.079C56.3938 118.249 59.4178 128.449 62.6268 129.919C67.5378 132.179 71.5858 127.559 71.4858 121.189C71.4158 116.719 63.1968 102.829 60.7248 97.1493C58.2538 91.4593 47.4658 73.5892 79.7398 56.3792Z" fill="black"/>
<path d="M59.695 101.502C59.4683 101.464 59.2363 101.472 59.0122 101.523C58.7882 101.575 58.5765 101.67 58.3894 101.803C58.2022 101.937 58.0431 102.106 57.9213 102.301C57.7995 102.496 57.7173 102.713 57.6794 102.94C57.6414 103.167 57.6484 103.399 57.7 103.623C57.7517 103.847 57.847 104.058 57.9805 104.246C58.114 104.433 58.2831 104.592 58.478 104.714C58.673 104.835 58.8901 104.918 59.1169 104.956L93.9978 110.795C94.4554 110.872 94.9246 110.763 95.3022 110.494C95.6798 110.224 95.9349 109.816 96.0114 109.358C96.0877 108.9 95.9791 108.431 95.7095 108.053C95.44 107.676 95.0315 107.421 94.5739 107.344L59.695 101.502Z" fill="black"/>
<path d="M61.5915 195.471C61.3633 195.499 61.1429 195.572 60.9428 195.685C60.7427 195.799 60.567 195.95 60.4255 196.131C60.1398 196.497 60.0109 196.96 60.0669 197.421C60.1229 197.881 60.3594 198.3 60.7243 198.586C80.1615 213.805 97.1339 220.047 109.297 219.805C115.378 219.685 120.327 217.904 123.564 214.598C126.801 211.292 128.137 206.526 127.304 201.141C127.233 200.683 126.983 200.272 126.609 199.998C126.234 199.724 125.767 199.61 125.308 199.68C124.85 199.751 124.438 200.001 124.163 200.375C123.889 200.75 123.775 201.218 123.845 201.676C124.549 206.231 123.488 209.674 121.064 212.149C118.641 214.624 114.667 216.197 109.228 216.305C98.3514 216.521 81.9013 210.722 62.8825 195.831C62.7015 195.689 62.4943 195.584 62.2728 195.523C62.0513 195.461 61.8197 195.443 61.5915 195.471Z" fill="black"/>
<path d="M58.3005 186.753C53.5286 190.636 51.527 195.779 50.8708 200.298C50.2147 204.816 50.8314 208.728 51.3337 210.692C53.2049 218.011 59.6194 223.759 66.3806 228.151C73.1418 232.543 80.3697 235.564 84.3669 237.014C97.0256 241.612 106.332 241.448 113.062 239.216C119.792 236.983 123.84 232.719 126.129 229.581C130.142 224.082 131.596 216.915 132.144 211.12C132.693 205.324 132.287 200.803 132.287 200.803C132.266 200.575 132.201 200.352 132.095 200.148C131.988 199.944 131.843 199.764 131.666 199.616C131.49 199.469 131.287 199.358 131.067 199.289C130.848 199.22 130.617 199.195 130.388 199.216C130.159 199.236 129.936 199.301 129.733 199.408C129.529 199.514 129.348 199.66 129.201 199.837C129.053 200.013 128.942 200.217 128.873 200.436C128.805 200.656 128.78 200.887 128.801 201.116C128.801 201.116 129.177 205.325 128.66 210.792C128.142 216.259 126.68 222.887 123.301 227.518C121.272 230.3 117.832 233.946 111.961 235.893C106.09 237.841 97.6806 238.128 85.5603 233.725C81.7605 232.346 74.7034 229.386 68.2868 225.218C61.8703 221.05 56.2151 215.658 54.7243 209.827C54.3367 208.311 53.7663 204.71 54.3337 200.803C54.9011 196.897 56.5314 192.707 60.5095 189.469C60.6879 189.324 60.8361 189.146 60.9455 188.943C61.0548 188.741 61.1232 188.519 61.1468 188.291C61.1704 188.062 61.1486 187.831 61.0829 187.61C61.0171 187.39 60.9085 187.185 60.7634 187.007C60.6183 186.828 60.4394 186.68 60.2371 186.571C60.0348 186.462 59.8129 186.394 59.5841 186.37C59.3554 186.347 59.1243 186.369 58.9041 186.435C58.6838 186.5 58.4787 186.609 58.3005 186.755V186.753Z" fill="black"/>
<path d="M53.029 212.303C16.3334 248.513 2.6857 279.872 0.417642 320.11C-0.629618 338.684 0.502939 355.108 2.29069 367.876C4.07846 380.643 6.47589 389.67 8.14616 393.805C13.7441 407.676 22.8562 415.374 32.6657 419.719C42.4756 424.065 52.9548 425.174 61.5798 426.286C61.5804 426.286 61.5811 426.286 61.5818 426.286C79.3889 428.57 100.392 423.532 100.392 423.532C100.743 423.449 101.059 423.26 101.298 422.99C101.538 422.721 101.688 422.384 101.728 422.026C105.252 390.798 121.275 375.762 121.275 375.762C121.493 375.557 121.655 375.299 121.744 375.013C121.834 374.727 121.849 374.423 121.787 374.13C121.726 373.836 121.59 373.564 121.393 373.338C121.196 373.112 120.944 372.941 120.662 372.84C84.929 360.112 44.0544 370.946 44.0544 370.946C43.832 371.004 43.6232 371.106 43.44 371.245C43.2568 371.383 43.1028 371.557 42.9867 371.755C42.8707 371.954 42.7948 372.173 42.7635 372.401C42.7322 372.629 42.7461 372.86 42.8044 373.083C42.8626 373.305 42.964 373.514 43.1029 373.697C43.2418 373.88 43.4154 374.034 43.6138 374.15C43.8122 374.266 44.0316 374.342 44.2593 374.374C44.4871 374.405 44.7188 374.391 44.9411 374.333C44.9411 374.333 83.2076 364.466 116.963 375.346C112.884 379.944 101.732 394.559 98.4743 420.317C96.7551 420.707 78.0836 424.873 62.0271 422.813C53.346 421.694 43.2458 420.579 34.0837 416.52C24.9216 412.461 16.6704 405.574 11.3923 392.495C9.96058 388.95 7.51628 379.951 5.75755 367.391C3.99883 354.831 2.8791 338.623 3.91184 320.307C6.14178 280.745 19.1977 250.606 55.488 214.796C55.8182 214.469 56.0053 214.026 56.0082 213.561C56.0111 213.097 55.8296 212.651 55.5036 212.321C55.1778 211.99 54.7341 211.803 54.27 211.799C53.8059 211.796 53.3595 211.978 53.029 212.303Z" fill="black"/>
<path d="M60.5564 265.038C60.1027 265.134 59.706 265.407 59.4533 265.796C59.2006 266.185 59.1126 266.658 59.2087 267.112C68.7357 312.037 68.3207 351.237 67.9294 363.348C67.4506 362.908 67.0516 362.4 66.5192 362.016C64.2579 360.387 61.5526 359.179 58.9353 358.251C53.7005 356.393 48.738 355.669 48.738 355.669C48.2791 355.601 47.8121 355.718 47.4396 355.995C47.0671 356.271 46.8197 356.684 46.7517 357.143C46.7179 357.371 46.7292 357.602 46.7851 357.825C46.8409 358.048 46.9401 358.258 47.077 358.443C47.214 358.627 47.386 358.783 47.5832 358.901C47.7803 359.02 47.9989 359.098 48.2263 359.131C48.2263 359.131 52.9181 359.829 57.7653 361.549C60.189 362.409 62.6309 363.529 64.4724 364.856C66.3139 366.183 67.4787 367.648 67.7888 369.202C67.871 369.62 68.1031 369.994 68.4416 370.254C68.7801 370.513 69.2017 370.64 69.6272 370.61C70.0526 370.581 70.4527 370.397 70.7522 370.094C71.0516 369.79 71.23 369.387 71.2536 368.962C71.2536 368.962 74.1147 320.53 62.6325 266.385C62.5847 266.161 62.4931 265.947 62.3629 265.758C62.2327 265.569 62.0664 265.407 61.8736 265.282C61.6808 265.156 61.4652 265.07 61.2392 265.029C61.0132 264.987 60.7812 264.99 60.5564 265.038Z" fill="black"/>
<path d="M140.791 257.922C140.569 257.984 140.362 258.088 140.181 258.23C140 258.371 139.848 258.547 139.735 258.747C139.622 258.947 139.549 259.167 139.521 259.396C139.493 259.624 139.51 259.855 139.572 260.077C149.021 294.236 151.838 329.302 151.867 364.821C151.867 365.285 152.052 365.73 152.381 366.058C152.709 366.385 153.155 366.569 153.619 366.569C154.083 366.568 154.528 366.384 154.856 366.055C155.183 365.726 155.367 365.281 155.367 364.817C155.338 329.115 152.51 293.724 142.945 259.143C142.884 258.921 142.78 258.714 142.638 258.533C142.497 258.351 142.321 258.2 142.121 258.086C141.921 257.973 141.7 257.9 141.472 257.872C141.244 257.844 141.012 257.861 140.791 257.922Z" fill="black"/>
<path d="M130.843 214.381C130.483 214.089 130.022 213.951 129.56 213.999C129.099 214.046 128.675 214.275 128.383 214.635C128.09 214.995 127.952 215.457 128 215.918C128.048 216.38 128.277 216.804 128.636 217.096C128.636 217.096 132.07 219.869 136.566 226.372C141.062 232.874 146.515 243.018 150.23 257.534C154.468 274.095 159.326 296.011 166.322 364.997C166.345 365.225 166.413 365.447 166.522 365.65C166.631 365.852 166.779 366.031 166.957 366.176C167.135 366.321 167.34 366.43 167.56 366.496C167.78 366.562 168.011 366.584 168.24 366.561C168.469 366.538 168.69 366.47 168.893 366.361C169.095 366.252 169.274 366.104 169.419 365.926C169.565 365.748 169.674 365.543 169.74 365.323C169.806 365.103 169.828 364.872 169.804 364.643C162.8 295.569 157.883 273.323 153.621 256.665C149.799 241.731 144.157 231.194 139.445 224.379C134.733 217.564 130.843 214.381 130.843 214.381Z" fill="black"/>
<path d="M287.715 319.817C285.963 319.507 284.319 320.059 283.009 320.893C281.7 321.728 280.637 322.847 279.758 323.956C278.958 324.963 278.956 325.187 278.48 326.003C277.788 325.158 277.059 324.465 276.248 324.01C274.787 323.192 273.082 323.159 271.722 323.717C269.003 324.834 267.354 327.571 266.31 330.317C265.432 332.627 264.081 337.15 263.853 342.352C263.626 347.554 264.54 353.506 268.474 358.264C268.475 358.264 268.476 358.264 268.476 358.264C272.035 362.558 276.982 363.136 280.888 361.28C284.795 359.424 287.906 355.56 289.379 351.175C291.713 344.221 292.895 337.032 292.861 331.309C292.844 328.448 292.537 325.955 291.814 323.946C291.092 321.938 289.773 320.178 287.715 319.815L287.715 319.817ZM287.103 323.262C287.105 323.262 287.106 323.262 287.107 323.262C287.501 323.331 288.015 323.727 288.521 325.134C289.028 326.54 289.346 328.724 289.361 331.331C289.392 336.545 288.274 343.467 286.06 350.063C284.876 353.587 282.188 356.789 279.387 358.12C276.584 359.451 273.911 359.338 271.172 356.032C267.988 352.18 267.147 347.18 267.351 342.505C267.556 337.829 268.826 333.551 269.582 331.561C270.416 329.367 271.986 327.394 273.053 326.956C273.586 326.737 273.917 326.716 274.537 327.063C275.156 327.41 276.051 328.291 276.99 330.03C277.144 330.316 277.375 330.553 277.656 330.715C277.937 330.877 278.258 330.958 278.582 330.948C278.906 330.939 279.222 330.839 279.493 330.661C279.764 330.482 279.98 330.232 280.117 329.938C280.117 329.938 281.048 327.961 282.5 326.131C283.226 325.216 284.075 324.364 284.89 323.844C285.706 323.324 286.399 323.138 287.103 323.262Z" fill="black"/>
<path d="M282.324 311.544C282.109 311.461 281.88 311.423 281.65 311.429C281.421 311.435 281.194 311.487 280.984 311.581C280.775 311.675 280.585 311.809 280.427 311.977C280.269 312.144 280.146 312.34 280.064 312.555C280.064 312.555 276.501 321.612 276.783 329.264C276.8 329.728 277.001 330.166 277.341 330.481C277.681 330.797 278.132 330.965 278.595 330.948C279.059 330.931 279.497 330.73 279.812 330.39C280.128 330.05 280.296 329.599 280.279 329.135C280.043 322.728 283.336 313.803 283.336 313.803C283.418 313.588 283.457 313.36 283.45 313.13C283.444 312.9 283.392 312.674 283.298 312.464C283.204 312.254 283.07 312.065 282.903 311.907C282.735 311.749 282.539 311.625 282.324 311.544Z" fill="black"/>
<path d="M339.748 254.149L238.558 283.649C238.283 283.729 238.033 283.876 237.828 284.076C237.623 284.276 237.47 284.523 237.383 284.795L194.197 419.715C194.121 419.953 194.096 420.205 194.125 420.453C194.154 420.702 194.236 420.941 194.365 421.155C194.365 421.155 195.75 423.44 198.56 425.128C201.37 426.815 205.765 427.926 211.363 426.004H211.365C221.688 422.451 285.514 400.385 290.607 398.678C293.045 397.871 295.251 397.683 297.355 395.969C299.461 394.254 300.92 391.361 302.42 385.772C303.811 380.581 313.351 350.172 322.474 321.327C331.598 292.482 340.357 265.001 340.357 265.001C340.427 264.782 340.453 264.551 340.434 264.322C340.414 264.093 340.35 263.87 340.245 263.665C340.139 263.461 339.994 263.28 339.818 263.131C339.643 262.983 339.44 262.871 339.22 262.801C338.778 262.661 338.299 262.702 337.886 262.915C337.474 263.128 337.164 263.496 337.023 263.938C337.023 263.938 328.264 291.422 319.138 320.272C310.013 349.122 300.574 379.137 299.039 384.866C297.611 390.187 296.341 392.28 295.144 393.254C293.948 394.229 292.28 394.437 289.5 395.358C289.498 395.358 289.496 395.358 289.494 395.358C284.145 397.151 220.531 419.145 210.226 422.692C205.512 424.309 202.441 423.371 200.363 422.124C198.928 421.262 198.216 420.45 197.806 419.915L240.431 286.747L340.726 257.508C340.947 257.444 341.153 257.337 341.332 257.193C341.512 257.05 341.661 256.872 341.771 256.67C341.882 256.469 341.952 256.247 341.977 256.019C342.002 255.79 341.982 255.559 341.918 255.338C341.853 255.118 341.746 254.912 341.602 254.733C341.459 254.553 341.281 254.404 341.079 254.293C340.878 254.183 340.657 254.113 340.428 254.088C340.2 254.063 339.968 254.083 339.748 254.147L339.748 254.149Z" fill="black"/>
<path d="M145.107 386.301C144.889 386.228 144.659 386.198 144.43 386.213C144.2 386.228 143.976 386.289 143.77 386.39C143.564 386.492 143.38 386.634 143.229 386.807C143.078 386.98 142.962 387.181 142.888 387.399C142.815 387.617 142.785 387.847 142.8 388.076C142.815 388.306 142.876 388.53 142.978 388.736C143.079 388.942 143.221 389.126 143.394 389.277C143.567 389.429 143.768 389.544 143.986 389.618C143.986 389.618 146.773 390.56 149.83 391.665C151.358 392.217 152.955 392.811 154.289 393.34C155.623 393.87 156.758 394.385 157.074 394.573H157.078C157.714 394.948 158.494 395.901 158.996 397.104C159.498 398.307 159.73 399.725 159.613 400.831C159.478 402.101 159.388 403.648 159.109 404.979C158.831 406.309 158.335 407.274 157.892 407.6C157.506 407.88 157.03 407.934 156.947 407.905C156.864 407.875 156.536 407.826 156.416 406.335C156.262 404.44 156.058 402.127 155.183 399.934C154.309 397.741 152.597 395.626 149.808 394.696H149.806C146.92 393.736 143.949 393.175 142.008 392.876C142.004 392.876 142 392.876 141.996 392.876C140.077 392.591 138.17 393.514 137.199 395.19L137.217 395.161C135.63 397.778 131.924 402.865 126.703 405.261C121.482 407.657 114.748 407.797 105.677 400.001C105.503 399.851 105.301 399.737 105.083 399.665C104.864 399.593 104.634 399.565 104.405 399.582C104.175 399.599 103.952 399.662 103.747 399.765C103.541 399.869 103.359 400.012 103.209 400.187C103.059 400.361 102.945 400.563 102.873 400.781C102.801 401 102.773 401.23 102.79 401.459C102.807 401.689 102.869 401.912 102.973 402.118C103.077 402.323 103.22 402.505 103.394 402.655C113.172 411.059 121.848 411.339 128.164 408.441C134.48 405.542 138.437 399.898 140.209 396.975C140.215 396.965 140.221 396.955 140.226 396.944C140.483 396.501 140.975 396.264 141.482 396.339C143.301 396.62 146.121 397.16 148.701 398.019C150.468 398.608 151.313 399.682 151.931 401.233C152.55 402.785 152.778 404.775 152.928 406.62C153.11 408.878 154.172 410.634 155.771 411.204C157.371 411.775 158.869 411.221 159.953 410.433C159.955 410.433 159.957 410.433 159.959 410.433C161.59 409.238 162.181 407.396 162.535 405.702C162.889 404.009 162.976 402.316 163.094 401.206C163.288 399.371 162.94 397.47 162.226 395.761C161.514 394.053 160.444 392.503 158.861 391.567C158.067 391.095 156.971 390.643 155.58 390.091C154.189 389.539 152.568 388.936 151.019 388.376C147.921 387.256 145.107 386.304 145.107 386.304L145.107 386.301Z" fill="black"/>
<path d="M150.318 381.934C150.103 381.852 149.875 381.813 149.645 381.819C149.415 381.826 149.189 381.877 148.979 381.971C148.769 382.065 148.58 382.199 148.422 382.366C148.264 382.533 148.14 382.729 148.058 382.944C147.976 383.159 147.937 383.387 147.943 383.617C147.95 383.847 148.001 384.073 148.095 384.283C148.189 384.493 148.323 384.682 148.49 384.84C148.657 384.998 148.853 385.122 149.068 385.204C150.07 385.587 153.346 386.859 156.527 388.139C158.118 388.78 159.688 389.423 160.935 389.958C162.183 390.492 163.246 391.021 163.265 391.034C164.126 391.584 164.868 391.943 165.558 392.711C166.248 393.48 166.935 394.66 167.269 396.997C167.622 399.469 167.64 401.857 167.357 403.417C167.216 404.196 166.984 404.755 166.841 404.963C166.711 405.154 166.85 405.034 166.914 405.014C166.021 404.997 165.485 404.877 164.91 404.339C164.33 403.797 163.621 402.619 163.097 400.208C162.999 399.754 162.724 399.359 162.333 399.108C161.943 398.857 161.469 398.771 161.015 398.87C160.562 398.969 160.167 399.243 159.916 399.633C159.665 400.023 159.579 400.497 159.677 400.95C160.287 403.759 161.196 405.657 162.521 406.895C163.846 408.134 165.501 408.494 166.865 408.518C166.868 408.518 166.87 408.518 166.873 408.518C168.062 408.534 169.151 407.788 169.732 406.936C170.314 406.085 170.606 405.114 170.801 404.038C171.191 401.885 171.126 399.249 170.734 396.501C170.323 393.627 169.327 391.666 168.162 390.37C166.997 389.073 165.712 388.443 165.148 388.083C164.455 387.64 163.603 387.291 162.314 386.739C161.026 386.187 159.438 385.537 157.834 384.891C154.625 383.6 151.357 382.329 150.318 381.932L150.318 381.934Z" fill="black"/>
<path d="M156.89 377.971C156.453 377.815 155.972 377.839 155.553 378.038C155.134 378.236 154.81 378.593 154.654 379.03C154.576 379.246 154.542 379.476 154.554 379.706C154.565 379.935 154.621 380.161 154.719 380.368C154.818 380.576 154.956 380.763 155.126 380.917C155.297 381.072 155.496 381.191 155.713 381.268C156.557 381.57 159.15 382.481 161.814 383.675C164.478 384.868 167.231 386.535 167.941 387.423C170.244 390.303 172.039 393.232 172.631 396.165C172.964 397.813 173.368 400.129 173.445 401.934C173.483 402.814 173.422 403.557 173.328 403.942C172.771 404.007 172.264 404.041 171.939 403.917C171.53 403.76 171.111 403.457 170.584 402.628C170.46 402.434 170.3 402.266 170.112 402.135C169.924 402.003 169.711 401.909 169.487 401.859C169.263 401.809 169.031 401.804 168.804 401.844C168.578 401.884 168.362 401.967 168.168 402.091C167.974 402.214 167.806 402.375 167.674 402.563C167.542 402.751 167.449 402.963 167.399 403.188C167.349 403.412 167.344 403.644 167.383 403.87C167.423 404.097 167.507 404.313 167.631 404.507C168.439 405.778 169.472 406.719 170.685 407.185C171.898 407.65 173.162 407.618 174.357 407.386C175.04 407.253 175.654 406.82 176.023 406.345C176.392 405.87 176.58 405.373 176.709 404.882C176.966 403.9 176.988 402.876 176.941 401.786C176.848 399.607 176.41 397.194 176.062 395.472C175.294 391.664 173.138 388.315 170.675 385.236C169.002 383.143 166.076 381.748 163.246 380.479C160.415 379.211 157.697 378.258 156.89 377.97V377.971Z" fill="black"/>
<path d="M142.197 371.94C134.49 371.682 119.949 372.745 119.949 372.745C119.72 372.761 119.496 372.823 119.29 372.926C119.084 373.028 118.901 373.171 118.751 373.344C118.6 373.518 118.485 373.72 118.413 373.938C118.34 374.156 118.311 374.387 118.328 374.616C118.361 375.079 118.577 375.509 118.928 375.813C119.279 376.117 119.736 376.268 120.199 376.235C120.199 376.235 134.85 375.196 142.078 375.438C149.807 375.707 157.449 374.398 164.824 379.032C172.722 383.994 176.157 386.534 179.24 397.696C179.792 399.696 179.785 400.912 179.677 401.341C179.57 401.77 179.736 401.523 179.535 401.561C179.133 401.638 177.153 401.036 175.886 400.499C175.675 400.409 175.448 400.362 175.218 400.36C174.988 400.358 174.76 400.401 174.547 400.487C174.334 400.573 174.14 400.701 173.976 400.862C173.812 401.023 173.681 401.215 173.591 401.426C173.411 401.854 173.407 402.335 173.581 402.765C173.755 403.195 174.092 403.538 174.519 403.719C175.68 404.212 177.747 405.469 180.195 404.999C181.419 404.764 182.71 403.643 183.074 402.19C183.438 400.737 183.248 399.064 182.613 396.764C179.37 385.026 174.705 381.105 166.685 376.067C158.145 370.701 149.402 372.191 142.199 371.94C142.198 371.94 142.198 371.94 142.197 371.94Z" fill="black"/>
<path d="M116.355 406.28C115.902 406.378 115.505 406.652 115.254 407.042C110.415 414.555 106.428 417.772 103.834 419.126C102.537 419.803 101.585 420.022 101.002 420.092C100.418 420.162 100.373 420.122 100.373 420.122C99.92 420.02 99.4453 420.101 99.0531 420.349C98.6608 420.597 98.383 420.991 98.281 421.444C98.179 421.897 98.261 422.371 98.5089 422.763C98.7569 423.156 99.1505 423.434 99.6032 423.536C99.6032 423.536 100.414 423.688 101.422 423.567C102.429 423.445 103.804 423.089 105.453 422.229C108.751 420.507 113.131 416.802 118.197 408.936C118.448 408.546 118.534 408.072 118.436 407.618C118.338 407.165 118.063 406.769 117.674 406.518C117.48 406.393 117.264 406.308 117.038 406.267C116.812 406.226 116.58 406.231 116.355 406.28Z" fill="black"/>
<path fill-rule="evenodd" clip-rule="evenodd" d="M104.536 401.329C107.053 403.489 109.447 405.079 111.714 406.199C107.429 412.899 100.753 416.369 100.753 416.369C101.688 410.789 103.013 405.779 104.536 401.329Z" fill="black"/>
<path d="M197.554 413.18L116.537 413.63C116.073 413.632 115.629 413.819 115.302 414.149C114.976 414.479 114.794 414.925 114.797 415.389C114.798 415.619 114.844 415.846 114.933 416.058C115.023 416.27 115.153 416.462 115.316 416.624C115.479 416.786 115.673 416.913 115.886 417C116.099 417.087 116.327 417.131 116.556 417.13L197.574 416.68C198.038 416.678 198.482 416.491 198.809 416.161C199.135 415.831 199.317 415.385 199.314 414.921C199.313 414.691 199.266 414.463 199.177 414.252C199.088 414.04 198.958 413.848 198.795 413.686C198.631 413.524 198.438 413.396 198.225 413.31C198.012 413.223 197.784 413.179 197.554 413.18Z" fill="black"/>
<path d="M110.043 421.419C109.813 421.417 109.585 421.46 109.371 421.547C109.158 421.633 108.964 421.761 108.801 421.922C108.637 422.084 108.506 422.276 108.417 422.488C108.327 422.7 108.281 422.927 108.279 423.157C108.276 423.621 108.457 424.067 108.783 424.397C109.108 424.727 109.552 424.915 110.015 424.919L199.836 425.6C200.066 425.602 200.294 425.559 200.507 425.472C200.72 425.386 200.914 425.258 201.078 425.097C201.242 424.935 201.372 424.743 201.461 424.531C201.551 424.319 201.598 424.092 201.599 423.862C201.602 423.398 201.421 422.952 201.096 422.622C200.77 422.291 200.327 422.104 199.863 422.1L110.043 421.419Z" fill="black"/>
<path d="M183.549 370.751C183.106 370.89 182.737 371.2 182.523 371.612C182.309 372.024 182.268 372.504 182.408 372.946C182.548 373.389 182.857 373.757 183.269 373.971C184.358 374.537 188.355 377.11 189.195 381.266C189.7 383.765 190.389 387.259 190.828 390.391C191.047 391.957 191.203 393.434 191.246 394.614C191.289 395.793 191.144 396.73 191.099 396.846C190.807 397.6 190.39 397.797 190.324 397.833C190.28 397.786 190.203 397.728 190.095 397.395C189.674 396.082 188.473 392.226 187.154 388.512C186.494 386.655 185.806 384.831 185.148 383.333C184.819 382.584 184.5 381.918 184.175 381.346C183.851 380.774 183.589 380.306 183.011 379.831C182.653 379.536 182.193 379.395 181.731 379.44C181.269 379.485 180.844 379.711 180.549 380.069C180.254 380.427 180.113 380.888 180.158 381.35C180.202 381.812 180.429 382.237 180.787 382.532C180.653 382.421 180.899 382.665 181.131 383.073C181.362 383.481 181.644 384.06 181.943 384.741C182.541 386.102 183.213 387.872 183.857 389.684C185.145 393.309 186.324 397.098 186.763 398.465C187.06 399.388 187.547 400.188 188.277 400.737C189.007 401.286 189.973 401.504 190.822 401.366C192.521 401.09 193.717 399.777 194.363 398.112C194.799 396.988 194.794 395.862 194.744 394.487C194.694 393.112 194.524 391.543 194.295 389.905C193.835 386.63 193.132 383.084 192.625 380.573C191.439 374.709 186.526 371.72 184.883 370.866C184.471 370.652 183.991 370.611 183.549 370.751Z" fill="black"/>
<path d="M191.65 371.008C191.465 371.144 191.308 371.316 191.188 371.512C191.069 371.709 190.989 371.927 190.954 372.154C190.919 372.381 190.93 372.613 190.984 372.837C191.039 373.06 191.137 373.27 191.273 373.456C191.691 374.026 192.127 374.412 192.767 375.094C193.407 375.776 194.175 376.623 194.912 377.571C196.385 379.467 197.655 381.769 197.74 383.696C197.852 386.214 197.887 389.135 197.703 391.487C197.611 392.663 197.46 393.699 197.269 394.417C197.079 395.134 196.756 395.452 196.953 395.305C196.341 395.76 195.817 395.936 195.398 395.948C194.978 395.96 194.59 395.855 194.049 395.395C193.873 395.246 193.671 395.133 193.452 395.063C193.233 394.993 193.003 394.966 192.773 394.985C192.544 395.003 192.321 395.067 192.117 395.172C191.912 395.277 191.73 395.421 191.582 395.596C191.433 395.771 191.32 395.974 191.25 396.193C191.179 396.412 191.153 396.642 191.171 396.871C191.19 397.1 191.254 397.324 191.359 397.528C191.464 397.733 191.608 397.914 191.783 398.063C192.866 398.983 194.191 399.484 195.494 399.448C196.796 399.412 198.002 398.888 199.043 398.114C199.043 398.114 199.044 398.114 199.045 398.114C200.067 397.352 200.373 396.368 200.652 395.315C200.931 394.263 201.091 393.063 201.193 391.76C201.397 389.154 201.353 386.143 201.238 383.542C201.096 380.348 199.353 377.581 197.676 375.422C196.837 374.343 195.993 373.417 195.32 372.7C194.647 371.982 194.066 371.343 194.095 371.383C193.821 371.01 193.409 370.76 192.95 370.69C192.492 370.619 192.024 370.734 191.65 371.008Z" fill="black"/>
<path d="M204.215 393.641C203.762 393.54 203.288 393.623 202.896 393.872C202.554 394.089 201.553 394.264 200.658 394.223C199.763 394.182 199.068 394.024 199.068 394.024C198.616 393.92 198.141 394 197.747 394.246C197.354 394.492 197.075 394.884 196.97 395.336C196.866 395.789 196.946 396.264 197.192 396.657C197.438 397.05 197.831 397.33 198.283 397.434C198.283 397.434 199.266 397.663 200.498 397.719C201.73 397.776 203.307 397.759 204.773 396.827C204.967 396.704 205.135 396.543 205.267 396.355C205.399 396.167 205.493 395.955 205.543 395.73C205.593 395.506 205.599 395.274 205.559 395.048C205.519 394.821 205.435 394.605 205.312 394.411C205.189 394.217 205.028 394.049 204.84 393.917C204.652 393.785 204.439 393.691 204.215 393.641Z" fill="black"/>
<path d="M199.607 371.395C199.379 371.427 199.16 371.504 198.962 371.62C198.764 371.737 198.591 371.891 198.453 372.075C198.173 372.445 198.052 372.912 198.116 373.371C198.18 373.831 198.424 374.246 198.795 374.526C198.795 374.526 199.768 375.227 201.082 377.313C202.395 379.399 203.917 382.765 204.574 387.844C204.634 388.304 204.874 388.722 205.241 389.005C205.608 389.288 206.073 389.413 206.533 389.354C206.993 389.295 207.411 389.055 207.694 388.688C207.978 388.32 208.104 387.855 208.045 387.395C207.324 381.825 205.615 377.945 204.043 375.448C202.47 372.951 200.904 371.733 200.904 371.733C200.721 371.594 200.512 371.493 200.289 371.435C200.067 371.377 199.835 371.364 199.607 371.395Z" fill="black"/>
<path d="M189.175 364.502C184.931 364.596 182.01 365.254 179.675 366.157C177.182 367.121 174.388 369.035 172.09 370.727C169.791 372.42 168.039 373.903 168.039 373.903C167.863 374.051 167.719 374.233 167.613 374.437C167.508 374.642 167.444 374.865 167.425 375.094C167.406 375.323 167.432 375.553 167.502 375.772C167.573 375.991 167.685 376.194 167.834 376.37C168.133 376.723 168.561 376.944 169.024 376.982C169.486 377.021 169.944 376.874 170.298 376.575C170.298 376.575 171.969 375.163 174.166 373.545C176.362 371.928 179.137 370.118 180.937 369.422C184.853 367.908 191.05 367.029 206.004 369.672C206.23 369.713 206.462 369.708 206.686 369.658C206.911 369.609 207.124 369.515 207.312 369.384C207.5 369.252 207.661 369.085 207.785 368.891C207.909 368.697 207.993 368.481 208.033 368.254C208.073 368.028 208.068 367.796 208.019 367.571C207.969 367.346 207.876 367.134 207.744 366.945C207.612 366.757 207.444 366.596 207.25 366.473C207.056 366.349 206.84 366.265 206.613 366.225C198.988 364.877 193.42 364.408 189.175 364.502Z" fill="black"/>
</g>
<defs>
<clipPath id="clip0_1_394">
<rect width="341.971" height="426.357" fill="white" transform="translate(0.0159302 0.659302)"/>
</clipPath>
</defs>
</svg>